<?xml version="1.0" encoding="UTF-8"?><svg xmlns="http://www.w3.org/2000/svg" xmlns:xlink="http://www.w3.org/1999/xlink" fill-opacity="1" color-rendering="auto" color-interpolation="auto" text-rendering="auto" stroke="black" stroke-linecap="square" width="803" stroke-miterlimit="10" shape-rendering="auto" stroke-opacity="1" fill="black" stroke-dasharray="none" font-weight="normal" stroke-width="1" height="439" font-family="'Dialog'" font-style="normal" stroke-linejoin="miter" font-size="12px" stroke-dashoffset="0" image-rendering="auto">
  <!--Generated by ySVG 2.5-->
  <defs id="genericDefs"/>
  <g>
    <defs id="defs1">
      <linearGradient x1="715.8389" gradientUnits="userSpaceOnUse" x2="866.9955" y1="992.0532" y2="992.0532" id="linearGradient1" spreadMethod="reflect">
        <stop stop-opacity="0.8" stop-color="rgb(212,212,212)" offset="0%"/>
        <stop stop-opacity="1" stop-color="white" offset="100%"/>
      </linearGradient>
      <linearGradient x1="414.897" gradientUnits="userSpaceOnUse" x2="481.5637" y1="961.777" y2="961.777" id="linearGradient2" spreadMethod="reflect">
        <stop stop-opacity="0.8" stop-color="rgb(212,212,212)" offset="0%"/>
        <stop stop-opacity="1" stop-color="white" offset="100%"/>
      </linearGradient>
      <linearGradient x1="414.897" gradientUnits="userSpaceOnUse" x2="481.5637" y1="1012.3405" y2="1012.3405" id="linearGradient3" spreadMethod="reflect">
        <stop stop-opacity="0.8" stop-color="rgb(212,212,212)" offset="0%"/>
        <stop stop-opacity="1" stop-color="white" offset="100%"/>
      </linearGradient>
      <linearGradient x1="414.897" gradientUnits="userSpaceOnUse" x2="481.5637" y1="1062.9039" y2="1062.9039" id="linearGradient4" spreadMethod="reflect">
        <stop stop-opacity="0.8" stop-color="rgb(212,212,212)" offset="0%"/>
        <stop stop-opacity="1" stop-color="white" offset="100%"/>
      </linearGradient>
      <linearGradient x1="968.3804" gradientUnits="userSpaceOnUse" x2="1086.2037" y1="1062.9039" y2="1062.9039" id="linearGradient5" spreadMethod="reflect">
        <stop stop-opacity="0.8" stop-color="rgb(212,212,212)" offset="0%"/>
        <stop stop-opacity="1" stop-color="white" offset="100%"/>
      </linearGradient>
      <linearGradient x1="730.4614" gradientUnits="userSpaceOnUse" x2="797.1281" y1="901.5253" y2="901.5253" id="linearGradient6" spreadMethod="reflect">
        <stop stop-opacity="0.8" stop-color="rgb(212,212,212)" offset="0%"/>
        <stop stop-opacity="1" stop-color="white" offset="100%"/>
      </linearGradient>
      <linearGradient x1="849.3045" gradientUnits="userSpaceOnUse" x2="987.9712" y1="1244.4988" y2="1244.4988" id="linearGradient7" spreadMethod="reflect">
        <stop stop-opacity="0.8" stop-color="rgb(212,212,212)" offset="0%"/>
        <stop stop-opacity="1" stop-color="white" offset="100%"/>
      </linearGradient>
      <linearGradient x1="612.4013" gradientUnits="userSpaceOnUse" x2="720.4013" y1="1244.4988" y2="1244.4988" id="linearGradient8" spreadMethod="reflect">
        <stop stop-opacity="0.8" stop-color="rgb(212,212,212)" offset="0%"/>
        <stop stop-opacity="1" stop-color="white" offset="100%"/>
      </linearGradient>
      <linearGradient x1="722.5056" gradientUnits="userSpaceOnUse" x2="849.9955" y1="1034.804" y2="1034.804" id="linearGradient9" spreadMethod="reflect">
        <stop stop-opacity="0.8" stop-color="rgb(212,212,212)" offset="0%"/>
        <stop stop-opacity="1" stop-color="white" offset="100%"/>
      </linearGradient>
      <linearGradient x1="722.5056" gradientUnits="userSpaceOnUse" x2="849.9955" y1="1092.608" y2="1092.608" id="linearGradient10" spreadMethod="reflect">
        <stop stop-opacity="0.8" stop-color="rgb(212,212,212)" offset="0%"/>
        <stop stop-opacity="1" stop-color="white" offset="100%"/>
      </linearGradient>
      <linearGradient x1="722.5056" gradientUnits="userSpaceOnUse" x2="849.9955" y1="1150.412" y2="1150.412" id="linearGradient11" spreadMethod="reflect">
        <stop stop-opacity="0.8" stop-color="rgb(212,212,212)" offset="0%"/>
        <stop stop-opacity="1" stop-color="white" offset="100%"/>
      </linearGradient>
      <linearGradient x1="508.0464" gradientUnits="userSpaceOnUse" x2="616.0464" y1="1157.98" y2="1157.98" id="linearGradient12" spreadMethod="reflect">
        <stop stop-opacity="0.8" stop-color="rgb(212,212,212)" offset="0%"/>
        <stop stop-opacity="1" stop-color="white" offset="100%"/>
      </linearGradient>
      <linearGradient x1="350.8897" gradientUnits="userSpaceOnUse" x2="424.0464" y1="1150.412" y2="1150.412" id="linearGradient13" spreadMethod="reflect">
        <stop stop-opacity="0.8" stop-color="rgb(212,212,212)" offset="0%"/>
        <stop stop-opacity="1" stop-color="white" offset="100%"/>
      </linearGradient>
      <clipPath clipPathUnits="userSpaceOnUse" id="clipPath1">
        <path d="M0 0 L803 0 L803 439 L0 439 L0 0 Z"/>
      </clipPath>
      <clipPath clipPathUnits="userSpaceOnUse" id="clipPath2">
        <path d="M299 886 L1102 886 L1102 1325 L299 1325 L299 886 Z"/>
      </clipPath>
    </defs>
    <g fill="white" text-rendering="geometricPrecision" shape-rendering="geometricPrecision" transform="translate(-299,-886)" stroke="white">
      <rect x="299" width="803" height="439" y="886" clip-path="url(#clipPath2)" stroke="none"/>
    </g>
    <g text-rendering="geometricPrecision" stroke-miterlimit="1.45" stroke-dasharray="6,2" shape-rendering="geometricPrecision" transform="matrix(1,0,0,1,-299,-886)" stroke-linecap="butt">
      <rect fill="none" x="361.5106" width="138.75" height="200.7263" y="915.8817" clip-path="url(#clipPath2)"/>
    </g>
    <g font-size="16px" stroke-linecap="butt" transform="matrix(1,0,0,1,-299,-886)" text-rendering="geometricPrecision" font-family="sans-serif" shape-rendering="geometricPrecision" font-style="italic" stroke-miterlimit="1.45">
      <text x="367.5106" xml:space="preserve" y="936.7333" clip-path="url(#clipPath2)" stroke="none">scenario data</text>
    </g>
    <g fill="url(#linearGradient1)" text-rendering="geometricPrecision" shape-rendering="geometricPrecision" transform="matrix(1,0,0,1,-299,-886)" stroke="url(#linearGradient1)">
      <rect x="640.2606" y="992.0532" clip-path="url(#clipPath2)" width="226.735" rx="4" ry="4" height="211.9178" stroke="none"/>
    </g>
    <g stroke-linecap="butt" transform="matrix(1,0,0,1,-299,-886)" fill="rgb(102,102,153)" text-rendering="geometricPrecision" shape-rendering="geometricPrecision" stroke="rgb(102,102,153)" stroke-width="3" stroke-miterlimit="1.45">
      <rect x="640.2606" y="992.0532" clip-path="url(#clipPath2)" fill="none" width="226.735" rx="4" ry="4" height="211.9178"/>
    </g>
    <g font-size="18px" stroke-linecap="butt" transform="matrix(1,0,0,1,-299,-886)" text-rendering="geometricPrecision" font-family="sans-serif" shape-rendering="geometricPrecision" font-weight="bold" stroke-miterlimit="1.45">
      <text x="677.0358" xml:space="preserve" y="1014.7612" clip-path="url(#clipPath2)" stroke="none">DeflexScenario</text>
    </g>
    <g fill="url(#linearGradient2)" text-rendering="geometricPrecision" shape-rendering="geometricPrecision" transform="matrix(1,0,0,1,-299,-886)" stroke="url(#linearGradient2)">
      <rect x="381.5637" y="961.777" clip-path="url(#clipPath2)" width="100" rx="4" ry="4" height="35" stroke="none"/>
    </g>
    <g stroke-linecap="butt" transform="matrix(1,0,0,1,-299,-886)" fill="rgb(102,102,153)" text-rendering="geometricPrecision" shape-rendering="geometricPrecision" stroke="rgb(102,102,153)" stroke-width="3" stroke-miterlimit="1.45">
      <rect x="381.5637" y="961.777" clip-path="url(#clipPath2)" fill="none" width="100" rx="4" ry="4" height="35"/>
    </g>
    <g font-size="18px" stroke-linecap="butt" transform="matrix(1,0,0,1,-299,-886)" text-rendering="geometricPrecision" font-family="sans-serif" shape-rendering="geometricPrecision" stroke-miterlimit="1.45">
      <text x="413.7395" xml:space="preserve" y="985.5084" clip-path="url(#clipPath2)" stroke="none">.csv</text>
    </g>
    <g fill="url(#linearGradient3)" text-rendering="geometricPrecision" shape-rendering="geometricPrecision" transform="matrix(1,0,0,1,-299,-886)" stroke="url(#linearGradient3)">
      <rect x="381.5637" y="1012.3405" clip-path="url(#clipPath2)" width="100" rx="4" ry="4" height="35" stroke="none"/>
    </g>
    <g stroke-linecap="butt" transform="matrix(1,0,0,1,-299,-886)" fill="rgb(102,102,153)" text-rendering="geometricPrecision" shape-rendering="geometricPrecision" stroke="rgb(102,102,153)" stroke-width="3" stroke-miterlimit="1.45">
      <rect x="381.5637" y="1012.3405" clip-path="url(#clipPath2)" fill="none" width="100" rx="4" ry="4" height="35"/>
    </g>
    <g font-size="18px" stroke-linecap="butt" transform="matrix(1,0,0,1,-299,-886)" text-rendering="geometricPrecision" font-family="sans-serif" shape-rendering="geometricPrecision" stroke-miterlimit="1.45">
      <text x="410.8611" xml:space="preserve" y="1036.0719" clip-path="url(#clipPath2)" stroke="none">.xlsx</text>
    </g>
    <g fill="url(#linearGradient4)" text-rendering="geometricPrecision" shape-rendering="geometricPrecision" transform="matrix(1,0,0,1,-299,-886)" stroke="url(#linearGradient4)">
      <rect x="381.5637" y="1062.9039" clip-path="url(#clipPath2)" width="100" rx="4" ry="4" height="35" stroke="none"/>
    </g>
    <g stroke-linecap="butt" transform="matrix(1,0,0,1,-299,-886)" fill="rgb(102,102,153)" text-rendering="geometricPrecision" shape-rendering="geometricPrecision" stroke-dasharray="18,6" stroke="rgb(102,102,153)" stroke-width="3" stroke-miterlimit="1.45">
      <rect x="381.5637" y="1062.9039" clip-path="url(#clipPath2)" fill="none" width="100" rx="4" ry="4" height="35"/>
    </g>
    <g font-size="18px" stroke-linecap="butt" transform="matrix(1,0,0,1,-299,-886)" text-rendering="geometricPrecision" font-family="sans-serif" shape-rendering="geometricPrecision" stroke-miterlimit="1.45">
      <text x="410.303" xml:space="preserve" y="1086.6354" clip-path="url(#clipPath2)" stroke="none">.json</text>
    </g>
    <g fill="url(#linearGradient5)" text-rendering="geometricPrecision" shape-rendering="geometricPrecision" transform="matrix(1,0,0,1,-299,-886)" stroke="url(#linearGradient5)">
      <rect x="909.4688" y="1062.9039" clip-path="url(#clipPath2)" width="176.735" rx="4" ry="4" height="123.5875" stroke="none"/>
    </g>
    <g stroke-linecap="butt" transform="matrix(1,0,0,1,-299,-886)" fill="rgb(102,102,153)" text-rendering="geometricPrecision" shape-rendering="geometricPrecision" stroke="rgb(102,102,153)" stroke-width="3" stroke-miterlimit="1.45">
      <rect x="909.4688" y="1062.9039" clip-path="url(#clipPath2)" fill="none" width="176.735" rx="4" ry="4" height="123.5875"/>
    </g>
    <g font-size="18px" stroke-linecap="butt" transform="matrix(1,0,0,1,-299,-886)" text-rendering="geometricPrecision" font-family="sans-serif" shape-rendering="geometricPrecision" stroke-miterlimit="1.45">
      <text x="942.3773" xml:space="preserve" y="1130.9292" clip-path="url(#clipPath2)" stroke="none">oemof.solph</text>
    </g>
    <g fill="url(#linearGradient6)" text-rendering="geometricPrecision" shape-rendering="geometricPrecision" transform="matrix(1,0,0,1,-299,-886)" stroke="url(#linearGradient6)">
      <rect x="697.1281" y="901.5253" clip-path="url(#clipPath2)" width="100" rx="4" ry="4" height="50" stroke="none"/>
    </g>
    <g stroke-linecap="butt" transform="matrix(1,0,0,1,-299,-886)" fill="rgb(102,102,153)" text-rendering="geometricPrecision" shape-rendering="geometricPrecision" stroke="rgb(102,102,153)" stroke-width="3" stroke-miterlimit="1.45">
      <rect x="697.1281" y="901.5253" clip-path="url(#clipPath2)" fill="none" width="100" rx="4" ry="4" height="50"/>
    </g>
    <g font-size="18px" stroke-linecap="butt" transform="matrix(1,0,0,1,-299,-886)" text-rendering="geometricPrecision" font-family="sans-serif" shape-rendering="geometricPrecision" stroke-miterlimit="1.45">
      <text x="719.5875" xml:space="preserve" y="932.7567" clip-path="url(#clipPath2)" stroke="none">config</text>
    </g>
    <g fill="url(#linearGradient7)" text-rendering="geometricPrecision" shape-rendering="geometricPrecision" transform="matrix(1,0,0,1,-299,-886)" stroke="url(#linearGradient7)">
      <rect x="779.9712" y="1244.4988" clip-path="url(#clipPath2)" width="208" rx="4" ry="4" height="65" stroke="none"/>
    </g>
    <g stroke-linecap="butt" transform="matrix(1,0,0,1,-299,-886)" fill="rgb(102,102,153)" text-rendering="geometricPrecision" shape-rendering="geometricPrecision" stroke="rgb(102,102,153)" stroke-width="3" stroke-miterlimit="1.45">
      <rect x="779.9712" y="1244.4988" clip-path="url(#clipPath2)" fill="none" width="208" rx="4" ry="4" height="65"/>
    </g>
    <g font-size="18px" stroke-linecap="butt" transform="matrix(1,0,0,1,-299,-886)" text-rendering="geometricPrecision" font-family="sans-serif" shape-rendering="geometricPrecision" stroke-miterlimit="1.45">
      <text x="847.5317" xml:space="preserve" y="1272.7537" clip-path="url(#clipPath2)" stroke="none">analysis</text>
      <text x="798.5898" xml:space="preserve" y="1293.7068" clip-path="url(#clipPath2)" stroke="none">module (e.g. plots)</text>
    </g>
    <g fill="url(#linearGradient8)" text-rendering="geometricPrecision" shape-rendering="geometricPrecision" transform="matrix(1,0,0,1,-299,-886)" stroke="url(#linearGradient8)">
      <rect x="558.4013" y="1244.4988" clip-path="url(#clipPath2)" width="162" rx="4" ry="4" height="65" stroke="none"/>
    </g>
    <g stroke-linecap="butt" transform="matrix(1,0,0,1,-299,-886)" fill="rgb(102,102,153)" text-rendering="geometricPrecision" shape-rendering="geometricPrecision" stroke="rgb(102,102,153)" stroke-width="3" stroke-miterlimit="1.45">
      <rect x="558.4013" y="1244.4988" clip-path="url(#clipPath2)" fill="none" width="162" rx="4" ry="4" height="65"/>
    </g>
    <g font-size="18px" stroke-linecap="butt" transform="matrix(1,0,0,1,-299,-886)" text-rendering="geometricPrecision" font-family="sans-serif" shape-rendering="geometricPrecision" stroke-miterlimit="1.45">
      <text x="608.8154" xml:space="preserve" y="1283.2302" clip-path="url(#clipPath2)" stroke="none">dumps</text>
    </g>
    <g fill="url(#linearGradient9)" text-rendering="geometricPrecision" shape-rendering="geometricPrecision" transform="matrix(1,0,0,1,-299,-886)" stroke="url(#linearGradient9)">
      <rect x="658.7606" y="1034.804" clip-path="url(#clipPath2)" width="191.235" rx="4" ry="4" height="37" stroke="none"/>
    </g>
    <g stroke-linecap="butt" transform="matrix(1,0,0,1,-299,-886)" fill="rgb(102,102,153)" text-rendering="geometricPrecision" shape-rendering="geometricPrecision" stroke="rgb(102,102,153)" stroke-width="3" stroke-miterlimit="1.45">
      <rect x="658.7606" y="1034.804" clip-path="url(#clipPath2)" fill="none" width="191.235" rx="4" ry="4" height="37"/>
    </g>
    <g font-size="18px" stroke-linecap="butt" transform="matrix(1,0,0,1,-299,-886)" text-rendering="geometricPrecision" font-family="sans-serif" shape-rendering="geometricPrecision" stroke-miterlimit="1.45">
      <text x="708.0948" xml:space="preserve" y="1059.5354" clip-path="url(#clipPath2)" stroke="none">input data</text>
    </g>
    <g fill="url(#linearGradient10)" text-rendering="geometricPrecision" shape-rendering="geometricPrecision" transform="matrix(1,0,0,1,-299,-886)" stroke="url(#linearGradient10)">
      <rect x="658.7606" y="1092.608" clip-path="url(#clipPath2)" width="191.235" rx="4" ry="4" height="37" stroke="none"/>
    </g>
    <g stroke-linecap="butt" transform="matrix(1,0,0,1,-299,-886)" fill="rgb(102,102,153)" text-rendering="geometricPrecision" shape-rendering="geometricPrecision" stroke="rgb(102,102,153)" stroke-width="3" stroke-miterlimit="1.45">
      <rect x="658.7606" y="1092.608" clip-path="url(#clipPath2)" fill="none" width="191.235" rx="4" ry="4" height="37"/>
    </g>
    <g font-size="18px" stroke-linecap="butt" transform="matrix(1,0,0,1,-299,-886)" text-rendering="geometricPrecision" font-family="sans-serif" shape-rendering="geometricPrecision" stroke-miterlimit="1.45">
      <text x="662.1764" xml:space="preserve" y="1117.3395" clip-path="url(#clipPath2)" stroke="none">solph.EnergySystem</text>
    </g>
    <g fill="url(#linearGradient11)" text-rendering="geometricPrecision" shape-rendering="geometricPrecision" transform="matrix(1,0,0,1,-299,-886)" stroke="url(#linearGradient11)">
      <rect x="658.7606" y="1150.412" clip-path="url(#clipPath2)" width="191.235" rx="4" ry="4" height="37" stroke="none"/>
    </g>
    <g stroke-linecap="butt" transform="matrix(1,0,0,1,-299,-886)" fill="rgb(102,102,153)" text-rendering="geometricPrecision" shape-rendering="geometricPrecision" stroke="rgb(102,102,153)" stroke-width="3" stroke-miterlimit="1.45">
      <rect x="658.7606" y="1150.412" clip-path="url(#clipPath2)" fill="none" width="191.235" rx="4" ry="4" height="37"/>
    </g>
    <g font-size="18px" stroke-linecap="butt" transform="matrix(1,0,0,1,-299,-886)" text-rendering="geometricPrecision" font-family="sans-serif" shape-rendering="geometricPrecision" stroke-miterlimit="1.45">
      <text x="724.0294" xml:space="preserve" y="1175.1434" clip-path="url(#clipPath2)" stroke="none">results</text>
    </g>
    <g fill="url(#linearGradient12)" text-rendering="geometricPrecision" shape-rendering="geometricPrecision" transform="matrix(1,0,0,1,-299,-886)" stroke="url(#linearGradient12)">
      <rect x="454.0464" y="1157.9799" clip-path="url(#clipPath2)" width="162" rx="4" ry="4" height="50" stroke="none"/>
    </g>
    <g stroke-linecap="butt" transform="matrix(1,0,0,1,-299,-886)" fill="rgb(102,102,153)" text-rendering="geometricPrecision" shape-rendering="geometricPrecision" stroke="rgb(102,102,153)" stroke-width="3" stroke-miterlimit="1.45">
      <rect x="454.0464" y="1157.9799" clip-path="url(#clipPath2)" fill="none" width="162" rx="4" ry="4" height="50"/>
    </g>
    <g font-size="18px" stroke-linecap="butt" transform="matrix(1,0,0,1,-299,-886)" text-rendering="geometricPrecision" font-family="sans-serif" shape-rendering="geometricPrecision" stroke-miterlimit="1.45">
      <text x="461.0777" xml:space="preserve" y="1189.2114" clip-path="url(#clipPath2)" stroke="none">scenario_builder</text>
    </g>
    <g fill="url(#linearGradient13)" text-rendering="geometricPrecision" shape-rendering="geometricPrecision" transform="matrix(1,0,0,1,-299,-886)" stroke="url(#linearGradient13)">
      <rect x="314.3114" y="1150.412" clip-path="url(#clipPath2)" width="109.735" rx="4" ry="4" height="109.9588" stroke="none"/>
    </g>
    <g stroke-linecap="butt" transform="matrix(1,0,0,1,-299,-886)" fill="rgb(102,102,153)" text-rendering="geometricPrecision" shape-rendering="geometricPrecision" stroke="rgb(102,102,153)" stroke-width="3" stroke-miterlimit="1.45">
      <rect x="314.3114" y="1150.412" clip-path="url(#clipPath2)" fill="none" width="109.735" rx="4" ry="4" height="109.9588"/>
    </g>
    <g font-size="18px" stroke-linecap="butt" transform="matrix(1,0,0,1,-299,-886)" text-rendering="geometricPrecision" font-family="sans-serif" shape-rendering="geometricPrecision" stroke-miterlimit="1.45">
      <text x="341.5021" xml:space="preserve" y="1211.6228" clip-path="url(#clipPath2)" stroke="none">reegis</text>
      <text x="506.8252" xml:space="preserve" y="1042.6821" clip-path="url(#clipPath2)" stroke="none">import/export</text>
      <path fill="none" d="M748.0754 951.5198 L749.3083 984.0469" clip-path="url(#clipPath2)"/>
      <path d="M749.6114 992.0412 L754.1533 979.8604 L749.2704 983.0477 L744.1604 980.2392 Z" stroke="none" clip-path="url(#clipPath2)"/>
      <path fill="none" d="M829.53 1203.9336 L829.53 1236.5253" clip-path="url(#clipPath2)"/>
      <path d="M829.53 1244.5253 L834.53 1232.5253 L829.53 1235.5253 L824.53 1232.5253 Z" stroke="none" clip-path="url(#clipPath2)"/>
      <path fill="none" d="M675.6306 1211.9349 L675.7472 1236.474" clip-path="url(#clipPath2)"/>
      <path d="M675.5925 1203.9351 L670.6496 1215.9587 L675.6353 1212.9349 L680.6495 1215.9111 Z" stroke="none" clip-path="url(#clipPath2)"/>
      <path d="M675.7852 1244.4739 L680.7281 1232.4502 L675.7424 1235.474 L670.7282 1232.4978 Z" stroke="none" clip-path="url(#clipPath2)"/>
      <path fill="none" d="M650.7535 1053.304 L508.2891 1053.304" clip-path="url(#clipPath2)"/>
      <path d="M658.7535 1053.304 L646.7535 1048.304 L649.7535 1053.304 L646.7535 1058.304 Z" stroke="none" clip-path="url(#clipPath2)"/>
      <path d="M500.2891 1053.304 L512.2891 1058.304 L509.2891 1053.304 L512.2891 1048.304 Z" stroke="none" clip-path="url(#clipPath2)"/>
      <path fill="none" d="M754.3781 1071.7911 L754.3781 1084.6398" clip-path="url(#clipPath2)"/>
      <path d="M754.3781 1092.6398 L759.3781 1080.6398 L754.3781 1083.6398 L749.3781 1080.6398 Z" stroke="none" clip-path="url(#clipPath2)"/>
      <path fill="none" d="M849.9827 1111.108 L901.4388 1111.108" clip-path="url(#clipPath2)"/>
      <path d="M909.4388 1111.108 L897.4388 1106.108 L900.4388 1111.108 L897.4388 1116.108 Z" stroke="none" clip-path="url(#clipPath2)"/>
      <path fill="none" d="M909.4958 1168.912 L858.0012 1168.912" clip-path="url(#clipPath2)"/>
      <path d="M850.0012 1168.912 L862.0012 1173.912 L859.0012 1168.912 L862.0012 1163.912 Z" stroke="none" clip-path="url(#clipPath2)"/>
      <path fill="none" stroke-dasharray="6,2" d="M616.0804 1182.98 L628 1182.98 L628 1064.1605 L650.7305 1064.1605" clip-path="url(#clipPath2)"/>
      <path stroke-dasharray="6,2" d="M658.7305 1064.1605 L646.7305 1059.1605 L649.7305 1064.1605 L646.7305 1069.1605 Z" clip-path="url(#clipPath2)" stroke="none"/>
      <path fill="none" stroke-dasharray="6,2" d="M424.0268 1182.98 L446.0313 1182.98" clip-path="url(#clipPath2)"/>
      <path stroke-dasharray="6,2" d="M454.0313 1182.98 L442.0313 1177.98 L445.0313 1182.98 L442.0313 1187.98 Z" clip-path="url(#clipPath2)" stroke="none"/>
    </g>
  </g>
</svg>
