<?xml version="1.0" encoding="UTF-8" standalone="no"?>
<!-- Created with Inkscape (http://www.inkscape.org/) -->

<svg
   width="406.80734"
   height="387.11963"
   id="svg2"
   version="1.1"
   inkscape:version="1.1.1 (3bf5ae0d25, 2021-09-20)"
   sodipodi:docname="logo_deflex_small.svg"
   inkscape:export-filename="/home/uwe/chiba/Lehre/esem/UrbaneEnergie/logo/logo_urbane-energie_für_rundes_logo.png"
   inkscape:export-xdpi="90"
   inkscape:export-ydpi="90"
   xmlns:inkscape="http://www.inkscape.org/namespaces/inkscape"
   xmlns:sodipodi="http://sodipodi.sourceforge.net/DTD/sodipodi-0.dtd"
   xmlns:xlink="http://www.w3.org/1999/xlink"
   xmlns="http://www.w3.org/2000/svg"
   xmlns:svg="http://www.w3.org/2000/svg"
   xmlns:rdf="http://www.w3.org/1999/02/22-rdf-syntax-ns#"
   xmlns:cc="http://creativecommons.org/ns#"
   xmlns:dc="http://purl.org/dc/elements/1.1/">
  <defs
     id="defs4">
    <linearGradient
       inkscape:collect="always"
       id="linearGradient39429">
      <stop
         style="stop-color:#9ba9bd;stop-opacity:1;"
         offset="0"
         id="stop39425" />
      <stop
         style="stop-color:#c8865d;stop-opacity:0"
         offset="1"
         id="stop39427" />
    </linearGradient>
    <linearGradient
       id="linearGradient38479"
       inkscape:swatch="solid">
      <stop
         style="stop-color:#ffdefc;stop-opacity:1;"
         offset="0"
         id="stop38477" />
    </linearGradient>
    <inkscape:perspective
       sodipodi:type="inkscape:persp3d"
       inkscape:vp_x="0 : 548.18823 : 1"
       inkscape:vp_y="0 : 1000 : 0"
       inkscape:vp_z="744.09448 : 548.18823 : 1"
       inkscape:persp3d-origin="372.04724 : 372.79453 : 1"
       id="perspective10" />
    <inkscape:perspective
       id="perspective2898"
       inkscape:persp3d-origin="0.5 : 22.34047 : 1"
       inkscape:vp_z="1 : 22.50714 : 1"
       inkscape:vp_y="0 : 1000 : 0"
       inkscape:vp_x="0 : 22.50714 : 1"
       sodipodi:type="inkscape:persp3d" />
    <inkscape:perspective
       id="perspective3745"
       inkscape:persp3d-origin="0.5 : 22.34047 : 1"
       inkscape:vp_z="1 : 22.50714 : 1"
       inkscape:vp_y="0 : 1000 : 0"
       inkscape:vp_x="0 : 22.50714 : 1"
       sodipodi:type="inkscape:persp3d" />
    <inkscape:perspective
       id="perspective3816"
       inkscape:persp3d-origin="0.5 : 22.34047 : 1"
       inkscape:vp_z="1 : 22.50714 : 1"
       inkscape:vp_y="0 : 1000 : 0"
       inkscape:vp_x="0 : 22.50714 : 1"
       sodipodi:type="inkscape:persp3d" />
    <inkscape:perspective
       id="perspective4161"
       inkscape:persp3d-origin="0.5 : 22.34047 : 1"
       inkscape:vp_z="1 : 22.50714 : 1"
       inkscape:vp_y="0 : 1000 : 0"
       inkscape:vp_x="0 : 22.50714 : 1"
       sodipodi:type="inkscape:persp3d" />
    <inkscape:perspective
       id="perspective4231"
       inkscape:persp3d-origin="0.5 : 22.34047 : 1"
       inkscape:vp_z="1 : 22.50714 : 1"
       inkscape:vp_y="0 : 1000 : 0"
       inkscape:vp_x="0 : 22.50714 : 1"
       sodipodi:type="inkscape:persp3d" />
    <inkscape:perspective
       id="perspective4289"
       inkscape:persp3d-origin="0.5 : 22.34047 : 1"
       inkscape:vp_z="1 : 22.50714 : 1"
       inkscape:vp_y="0 : 1000 : 0"
       inkscape:vp_x="0 : 22.50714 : 1"
       sodipodi:type="inkscape:persp3d" />
    <inkscape:perspective
       id="perspective4317"
       inkscape:persp3d-origin="0.5 : 22.34047 : 1"
       inkscape:vp_z="1 : 22.50714 : 1"
       inkscape:vp_y="0 : 1000 : 0"
       inkscape:vp_x="0 : 22.50714 : 1"
       sodipodi:type="inkscape:persp3d" />
    <inkscape:perspective
       id="perspective4386"
       inkscape:persp3d-origin="0.5 : 22.34047 : 1"
       inkscape:vp_z="1 : 22.50714 : 1"
       inkscape:vp_y="0 : 1000 : 0"
       inkscape:vp_x="0 : 22.50714 : 1"
       sodipodi:type="inkscape:persp3d" />
    <clipPath
       clipPathUnits="userSpaceOnUse"
       id="clipPath964">
      <ellipse
         style="fill:none;fill-opacity:1;stroke:#000000;stroke-width:0.630386;stroke-miterlimit:4;stroke-dasharray:none;stroke-opacity:1"
         id="ellipse966"
         cx="256.56104"
         cy="760.46039"
         rx="190.00563"
         ry="182.55624" />
    </clipPath>
    <clipPath
       clipPathUnits="userSpaceOnUse"
       id="clipPath968">
      <ellipse
         style="fill:none;fill-opacity:1;stroke:#000000;stroke-width:0.900808;stroke-miterlimit:4;stroke-dasharray:none;stroke-opacity:1"
         id="ellipse970"
         cx="-142.86131"
         cy="569.94543"
         rx="271.51398"
         ry="260.86896"
         transform="rotate(-52.690339)" />
    </clipPath>
    <clipPath
       clipPathUnits="userSpaceOnUse"
       id="clipPath972">
      <ellipse
         style="fill:none;fill-opacity:1;stroke:#000000;stroke-width:0.630386;stroke-miterlimit:4;stroke-dasharray:none;stroke-opacity:1"
         id="ellipse974"
         cx="256.56104"
         cy="760.46039"
         rx="190.00563"
         ry="182.55624" />
    </clipPath>
    <clipPath
       clipPathUnits="userSpaceOnUse"
       id="clipPath976">
      <ellipse
         style="fill:none;fill-opacity:1;stroke:#000000;stroke-width:0.630386;stroke-miterlimit:4;stroke-dasharray:none;stroke-opacity:1"
         id="ellipse978"
         cx="256.56104"
         cy="760.46039"
         rx="190.00563"
         ry="182.55624" />
    </clipPath>
    <clipPath
       clipPathUnits="userSpaceOnUse"
       id="clipPath980">
      <ellipse
         style="fill:none;fill-opacity:1;stroke:#000000;stroke-width:0.630386;stroke-miterlimit:4;stroke-dasharray:none;stroke-opacity:1"
         id="ellipse982"
         cx="256.56104"
         cy="760.46039"
         rx="190.00563"
         ry="182.55624" />
    </clipPath>
    <clipPath
       clipPathUnits="userSpaceOnUse"
       id="clipPath984">
      <ellipse
         style="fill:none;fill-opacity:1;stroke:#000000;stroke-width:0.630386;stroke-miterlimit:4;stroke-dasharray:none;stroke-opacity:1"
         id="ellipse986"
         cx="256.56104"
         cy="760.46039"
         rx="190.00563"
         ry="182.55624" />
    </clipPath>
    <clipPath
       clipPathUnits="userSpaceOnUse"
       id="clipPath988">
      <ellipse
         style="fill:none;fill-opacity:1;stroke:#000000;stroke-width:0.956312;stroke-miterlimit:4;stroke-dasharray:none;stroke-opacity:1"
         id="ellipse990"
         cx="125.01675"
         cy="811.479"
         rx="294.73282"
         ry="270.84482" />
    </clipPath>
    <clipPath
       clipPathUnits="userSpaceOnUse"
       id="clipPath992">
      <ellipse
         style="fill:none;fill-opacity:1;stroke:#000000;stroke-width:0.630386;stroke-miterlimit:4;stroke-dasharray:none;stroke-opacity:1"
         id="ellipse994"
         cx="256.56104"
         cy="760.46039"
         rx="190.00563"
         ry="182.55624" />
    </clipPath>
    <clipPath
       clipPathUnits="userSpaceOnUse"
       id="clipPath996">
      <ellipse
         style="fill:none;fill-opacity:1;stroke:#000000;stroke-width:2.96841;stroke-miterlimit:4;stroke-dasharray:none;stroke-opacity:1"
         id="ellipse998"
         cx="742.28967"
         cy="-306.4628"
         rx="923.16736"
         ry="833.13837"
         transform="matrix(0.1026984,0.99471254,-0.99318144,0.11657888,0,0)" />
    </clipPath>
    <clipPath
       clipPathUnits="userSpaceOnUse"
       id="clipPath1000">
      <ellipse
         style="fill:none;fill-opacity:1;stroke:#000000;stroke-width:4.59747;stroke-miterlimit:4;stroke-dasharray:none;stroke-opacity:1"
         id="ellipse1002"
         cx="-10.34537"
         cy="372.51736"
         rx="1342.3696"
         ry="1374.4098"
         transform="matrix(0.99746867,-0.07110733,0.06258024,0.99803994,0,0)" />
    </clipPath>
    <clipPath
       clipPathUnits="userSpaceOnUse"
       id="clipPath1004">
      <ellipse
         style="fill:none;fill-opacity:1;stroke:#000000;stroke-width:1.15932;stroke-miterlimit:4;stroke-dasharray:none;stroke-opacity:1"
         id="ellipse1006"
         cx="253.57214"
         cy="778.39001"
         rx="375.80756"
         ry="312.1709" />
    </clipPath>
    <clipPath
       clipPathUnits="userSpaceOnUse"
       id="clipPath1004-3">
      <ellipse
         style="fill:none;fill-opacity:1;stroke:#000000;stroke-width:1.15932;stroke-miterlimit:4;stroke-dasharray:none;stroke-opacity:1"
         id="ellipse1006-6"
         cx="253.57214"
         cy="778.39001"
         rx="375.80756"
         ry="312.1709" />
    </clipPath>
    <filter
       inkscape:collect="always"
       id="filter4684-7"
       x="-80.765914"
       width="162.53183"
       y="-0.31061443"
       height="1.6212289">
      <feGaussianBlur
         inkscape:collect="always"
         stdDeviation="66.352068"
         id="feGaussianBlur4686-5" />
    </filter>
    <clipPath
       clipPathUnits="userSpaceOnUse"
       id="clipPath1000-3">
      <ellipse
         style="fill:none;fill-opacity:1;stroke:#000000;stroke-width:4.59747;stroke-miterlimit:4;stroke-dasharray:none;stroke-opacity:1"
         id="ellipse1002-5"
         cx="-10.34537"
         cy="372.51736"
         rx="1342.3696"
         ry="1374.4098"
         transform="matrix(0.99746867,-0.07110733,0.06258024,0.99803994,0,0)" />
    </clipPath>
    <clipPath
       clipPathUnits="userSpaceOnUse"
       id="clipPath996-6">
      <ellipse
         style="fill:none;fill-opacity:1;stroke:#000000;stroke-width:2.96841;stroke-miterlimit:4;stroke-dasharray:none;stroke-opacity:1"
         id="ellipse998-2"
         cx="742.28967"
         cy="-306.4628"
         rx="923.16736"
         ry="833.13837"
         transform="matrix(0.1026984,0.99471254,-0.99318144,0.11657888,0,0)" />
    </clipPath>
    <clipPath
       clipPathUnits="userSpaceOnUse"
       id="clipPath992-9">
      <ellipse
         style="fill:none;fill-opacity:1;stroke:#000000;stroke-width:0.630386;stroke-miterlimit:4;stroke-dasharray:none;stroke-opacity:1"
         id="ellipse994-1"
         cx="256.56104"
         cy="760.46039"
         rx="190.00563"
         ry="182.55624" />
    </clipPath>
    <clipPath
       clipPathUnits="userSpaceOnUse"
       id="clipPath988-2">
      <ellipse
         style="fill:none;fill-opacity:1;stroke:#000000;stroke-width:0.956312;stroke-miterlimit:4;stroke-dasharray:none;stroke-opacity:1"
         id="ellipse990-7"
         cx="125.01675"
         cy="811.479"
         rx="294.73282"
         ry="270.84482" />
    </clipPath>
    <clipPath
       clipPathUnits="userSpaceOnUse"
       id="clipPath980-0">
      <ellipse
         style="fill:none;fill-opacity:1;stroke:#000000;stroke-width:0.630386;stroke-miterlimit:4;stroke-dasharray:none;stroke-opacity:1"
         id="ellipse982-9"
         cx="256.56104"
         cy="760.46039"
         rx="190.00563"
         ry="182.55624" />
    </clipPath>
    <clipPath
       clipPathUnits="userSpaceOnUse"
       id="clipPath976-3">
      <ellipse
         style="fill:none;fill-opacity:1;stroke:#000000;stroke-width:0.630386;stroke-miterlimit:4;stroke-dasharray:none;stroke-opacity:1"
         id="ellipse978-6"
         cx="256.56104"
         cy="760.46039"
         rx="190.00563"
         ry="182.55624" />
    </clipPath>
    <clipPath
       clipPathUnits="userSpaceOnUse"
       id="clipPath972-0">
      <ellipse
         style="fill:none;fill-opacity:1;stroke:#000000;stroke-width:0.630386;stroke-miterlimit:4;stroke-dasharray:none;stroke-opacity:1"
         id="ellipse974-6"
         cx="256.56104"
         cy="760.46039"
         rx="190.00563"
         ry="182.55624" />
    </clipPath>
    <clipPath
       clipPathUnits="userSpaceOnUse"
       id="clipPath968-2">
      <ellipse
         style="fill:none;fill-opacity:1;stroke:#000000;stroke-width:0.900808;stroke-miterlimit:4;stroke-dasharray:none;stroke-opacity:1"
         id="ellipse970-6"
         cx="-142.86131"
         cy="569.94543"
         rx="271.51398"
         ry="260.86896"
         transform="rotate(-52.690339)" />
    </clipPath>
    <clipPath
       clipPathUnits="userSpaceOnUse"
       id="clipPath964-1">
      <ellipse
         style="fill:none;fill-opacity:1;stroke:#000000;stroke-width:0.630386;stroke-miterlimit:4;stroke-dasharray:none;stroke-opacity:1"
         id="ellipse966-8"
         cx="256.56104"
         cy="760.46039"
         rx="190.00563"
         ry="182.55624" />
    </clipPath>
    <clipPath
       clipPathUnits="userSpaceOnUse"
       id="clipPath984-7">
      <ellipse
         style="fill:none;fill-opacity:1;stroke:#000000;stroke-width:0.630386;stroke-miterlimit:4;stroke-dasharray:none;stroke-opacity:1"
         id="ellipse986-9"
         cx="256.56104"
         cy="760.46039"
         rx="190.00563"
         ry="182.55624" />
    </clipPath>
    <clipPath
       clipPathUnits="userSpaceOnUse"
       id="clipPath1004-6">
      <ellipse
         style="fill:none;fill-opacity:1;stroke:#000000;stroke-width:1.15932;stroke-miterlimit:4;stroke-dasharray:none;stroke-opacity:1"
         id="ellipse1006-9"
         cx="253.57214"
         cy="778.39001"
         rx="375.80756"
         ry="312.1709" />
    </clipPath>
    <clipPath
       clipPathUnits="userSpaceOnUse"
       id="clipPath1004-6-5">
      <ellipse
         style="fill:none;fill-opacity:1;stroke:#000000;stroke-width:1.15932;stroke-miterlimit:4;stroke-dasharray:none;stroke-opacity:1"
         id="ellipse1006-9-2"
         cx="253.57214"
         cy="778.39001"
         rx="375.80756"
         ry="312.1709" />
    </clipPath>
    <linearGradient
       inkscape:collect="always"
       xlink:href="#linearGradient39429"
       id="linearGradient39431"
       x1="253.38568"
       y1="556.50391"
       x2="260.75064"
       y2="937.15326"
       gradientUnits="userSpaceOnUse" />
  </defs>
  <sodipodi:namedview
     id="base"
     pagecolor="#ffffff"
     bordercolor="#666666"
     borderopacity="1.0"
     inkscape:pageopacity="0"
     inkscape:pageshadow="2"
     inkscape:zoom="0.43761229"
     inkscape:cx="627.26758"
     inkscape:cy="407.89531"
     inkscape:document-units="px"
     inkscape:current-layer="layer1"
     showgrid="false"
     showguides="true"
     inkscape:guide-bbox="true"
     inkscape:window-width="1920"
     inkscape:window-height="1056"
     inkscape:window-x="0"
     inkscape:window-y="0"
     inkscape:window-maximized="1"
     fit-margin-top="0"
     fit-margin-left="16.8"
     fit-margin-right="2.9"
     fit-margin-bottom="0"
     inkscape:pagecheckerboard="0" />
  <metadata
     id="metadata7">
    <rdf:RDF>
      <cc:Work
         rdf:about="">
        <dc:format>image/svg+xml</dc:format>
        <dc:type
           rdf:resource="http://purl.org/dc/dcmitype/StillImage" />
      </cc:Work>
    </rdf:RDF>
  </metadata>
  <g
     inkscape:label="Ebene 1"
     inkscape:groupmode="layer"
     id="layer1"
     transform="translate(-49.601203,-556.44768)">
    <path
       style="fill:url(#linearGradient39431);fill-opacity:1;stroke:#6c9687;stroke-width:0.544;stroke-linecap:square;stroke-miterlimit:4;stroke-dasharray:none;stroke-opacity:0"
       id="path39199"
       sodipodi:type="arc"
       sodipodi:cx="259.95273"
       sodipodi:cy="750.00543"
       sodipodi:rx="193.26682"
       sodipodi:ry="193.27505"
       sodipodi:start="5.693648"
       sodipodi:end="5.6417768"
       sodipodi:open="true"
       sodipodi:arc-type="arc"
       d="M 420.59572,642.54904 A 193.26682,193.27505 0 0 1 369.47863,909.24833 193.26682,193.27505 0 0 1 102.15028,861.59176 193.26682,193.27505 0 0 1 146.33424,593.65651 193.26682,193.27505 0 0 1 414.8085,634.36421" />
    <flowRoot
       xml:space="preserve"
       id="flowRoot1054"
       style="font-style:normal;font-variant:normal;font-weight:normal;font-stretch:normal;font-size:40px;line-height:1.25;font-family:'VL PGothic';-inkscape-font-specification:'VL PGothic';letter-spacing:0px;word-spacing:0px;fill:#000000;fill-opacity:1;stroke:none"
       transform="translate(509.24275,705.68357)"><flowRegion
         id="flowRegion1056"
         style="font-style:normal;font-variant:normal;font-weight:normal;font-stretch:normal;font-family:'VL PGothic';-inkscape-font-specification:'VL PGothic'"><rect
           id="rect1058"
           width="1542.5564"
           height="537.35205"
           x="-625.49811"
           y="-132.07916"
           style="-inkscape-font-specification:'VL PGothic';font-family:'VL PGothic';font-weight:normal;font-style:normal;font-stretch:normal;font-variant:normal;" /></flowRegion><flowPara
         id="flowPara1060" /></flowRoot>
    <flowRoot
       xml:space="preserve"
       id="flowRoot1078"
       style="font-style:normal;font-variant:normal;font-weight:normal;font-stretch:normal;font-size:40px;line-height:1.25;font-family:'VL PGothic';-inkscape-font-specification:'VL PGothic';letter-spacing:0px;word-spacing:0px;fill:#000000;fill-opacity:1;stroke:none"><flowRegion
         id="flowRegion1080"
         style="font-style:normal;font-variant:normal;font-weight:normal;font-stretch:normal;font-family:'VL PGothic';-inkscape-font-specification:'VL PGothic'"><rect
           id="rect1082"
           width="608.06689"
           height="92.92218"
           x="375.10089"
           y="258.62936"
           style="-inkscape-font-specification:'VL PGothic';font-family:'VL PGothic';font-weight:normal;font-style:normal;font-stretch:normal;font-variant:normal;" /></flowRegion><flowPara
         id="flowPara1084" /></flowRoot>
    <g
       id="text1096"
       style="font-style:normal;font-variant:normal;font-weight:normal;font-stretch:normal;font-size:40px;line-height:1.25;font-family:'VL PGothic';-inkscape-font-specification:'VL PGothic';letter-spacing:0px;word-spacing:0px;fill:#000000;fill-opacity:1;stroke:none"
       aria-label="  " />
    <flowRoot
       xml:space="preserve"
       id="flowRoot1117"
       style="font-style:normal;font-weight:normal;font-size:40px;line-height:1.25;font-family:sans-serif;letter-spacing:0px;word-spacing:0px;fill:#000000;fill-opacity:1;stroke:none"><flowRegion
         id="flowRegion1119"><rect
           id="rect1121"
           width="952.6557"
           height="594.98602"
           x="354.27942"
           y="-163.76398" /></flowRegion><flowPara
         id="flowPara1123" /></flowRoot>
    <rect
       style="opacity:0.674267;fill:#ffffff;fill-opacity:1;stroke:#28cd28;stroke-opacity:1;filter:url(#filter4684-7)"
       id="rect4510-2"
       width="1.9778759"
       height="514.28699"
       x="-61.374413"
       y="575.46484"
       transform="matrix(0.50559289,0,0,0.58479582,131.71583,304.43416)"
       inkscape:export-filename="/home/uwe/esem-daten/Projekte/Aktuell/10-urbaneEnergie-EE_in_Städten - Charlotte und Uwe/logo/logo_urbane-energie_2.png"
       inkscape:export-xdpi="54.823753"
       inkscape:export-ydpi="54.823753"
       clip-path="url(#clipPath1004-3)" />
    <path
       d="m 259.21519,807.15177 7.29486,-5.82658 c 0,0 -2.69695,-15.35933 1.98063,-19.2962 6.97847,-5.8734 31.99059,-8.54692 31.99059,-8.54692 0,0 -6.26895,9.10381 -8.0912,12.57336 -2.41141,4.59131 -1.29417,11.28093 -5.621,14.35756 -4.60739,3.27612 -20.07638,0.76251 -20.07638,0.76251 l 33.26221,-27.56672"
       id="path3597-5-3"
       style="fill:none;stroke:#28cd28;stroke-width:2.02886;stroke-linecap:round;stroke-linejoin:miter;stroke-miterlimit:4;stroke-dasharray:none;stroke-opacity:1"
       inkscape:connector-curvature="0" />
    <path
       style="fill:none;stroke:#28cd28;stroke-width:2.02886;stroke-linecap:round;stroke-linejoin:miter;stroke-miterlimit:4;stroke-dasharray:none;stroke-opacity:1"
       id="path3599-8-7"
       d="m 271.08964,784.46942 -0.80767,9.49841"
       inkscape:connector-curvature="0" />
    <path
       style="fill:none;stroke:#28cd28;stroke-width:2.02886;stroke-linecap:round;stroke-linejoin:miter;stroke-miterlimit:4;stroke-dasharray:none;stroke-opacity:1"
       id="path3601-5-5"
       d="m 277.13264,780.50129 -0.59262,9.0285"
       inkscape:connector-curvature="0" />
    <path
       style="fill:none;stroke:#28cd28;stroke-width:2.02886;stroke-linecap:round;stroke-linejoin:miter;stroke-miterlimit:4;stroke-dasharray:none;stroke-opacity:1"
       id="path3603-7-9"
       d="m 283.40091,778.49251 -0.19454,5.49177"
       inkscape:connector-curvature="0" />
    <path
       style="fill:none;stroke:#28cd28;stroke-width:2.02886;stroke-linecap:round;stroke-linejoin:miter;stroke-miterlimit:4;stroke-dasharray:none;stroke-opacity:1"
       id="path3605-3-2"
       d="m 274.44988,798.45602 9.14958,0.61172"
       inkscape:connector-curvature="0" />
    <path
       style="fill:none;stroke:#28cd28;stroke-width:2.02886;stroke-linecap:round;stroke-linejoin:miter;stroke-miterlimit:4;stroke-dasharray:none;stroke-opacity:1"
       id="path3607-3-2"
       d="m 279.60625,793.88804 7.91557,0.47846"
       inkscape:connector-curvature="0" />
    <path
       style="fill:none;stroke:#28cd28;stroke-width:2.02886;stroke-linecap:round;stroke-linejoin:miter;stroke-miterlimit:4;stroke-dasharray:none;stroke-opacity:1"
       id="path3609-8-8"
       d="m 284.59095,789.09591 4.4577,0.45994"
       inkscape:connector-curvature="0" />
    <path
       d="m 257.09563,836.58279 -8.5318,-11.67514 c 0,0 -23.94647,3.15343 -29.72787,-4.34619 -8.62525,-11.18865 -11.10145,-50.07053 -11.10145,-50.07053 0,0 13.67117,10.30525 18.91903,13.35542 6.94458,4.03635 17.37045,2.75171 21.84398,9.65144 4.76361,7.34713 -0.1532,31.1173 -0.1532,31.1173 l -40.44869,-53.30122"
       id="path3597-3"
       style="fill:none;stroke:#28cd28;stroke-width:3.14239;stroke-linecap:round;stroke-linejoin:miter;stroke-miterlimit:4;stroke-dasharray:none;stroke-opacity:1"
       inkscape:connector-curvature="0" />
    <path
       style="fill:none;stroke:#28cd28;stroke-width:3.14239;stroke-linecap:round;stroke-linejoin:miter;stroke-miterlimit:4;stroke-dasharray:none;stroke-opacity:1"
       id="path3599-6"
       d="m 222.78492,816.70182 14.64443,1.88053"
       inkscape:connector-curvature="0" />
    <path
       style="fill:none;stroke:#28cd28;stroke-width:3.14239;stroke-linecap:round;stroke-linejoin:miter;stroke-miterlimit:4;stroke-dasharray:none;stroke-opacity:1"
       id="path3601-1"
       d="m 217.0458,807.08726 13.93158,1.51653"
       inkscape:connector-curvature="0" />
    <path
       style="fill:none;stroke:#28cd28;stroke-width:3.14239;stroke-linecap:round;stroke-linejoin:miter;stroke-miterlimit:4;stroke-dasharray:none;stroke-opacity:1"
       id="path3603-2"
       d="m 214.3536,797.2542 8.48518,0.66569"
       inkscape:connector-curvature="0" />
    <path
       style="fill:none;stroke:#28cd28;stroke-width:3.14239;stroke-linecap:round;stroke-linejoin:miter;stroke-miterlimit:4;stroke-dasharray:none;stroke-opacity:1"
       id="path3605-9"
       d="m 244.65124,812.43085 1.55414,-14.11765"
       inkscape:connector-curvature="0" />
    <path
       style="fill:none;stroke:#28cd28;stroke-width:3.14239;stroke-linecap:round;stroke-linejoin:miter;stroke-miterlimit:4;stroke-dasharray:none;stroke-opacity:1"
       id="path3607-31"
       d="m 237.92503,804.14844 1.26599,-12.21697"
       inkscape:connector-curvature="0" />
    <path
       style="fill:none;stroke:#28cd28;stroke-width:3.14239;stroke-linecap:round;stroke-linejoin:miter;stroke-miterlimit:4;stroke-dasharray:none;stroke-opacity:1"
       id="path3609-9"
       d="m 230.84058,796.11679 1.00771,-6.86741"
       inkscape:connector-curvature="0" />
    <path
       d="m 125.45484,916.59601 0.0875,-182.8153"
       id="path3512-1-4"
       style="fill:#3a94f3;fill-opacity:1;stroke:#3a94f3;stroke-width:7.34627;stroke-linecap:round;stroke-linejoin:miter;stroke-miterlimit:4;stroke-dasharray:none;stroke-opacity:1"
       inkscape:connector-curvature="0"
       clip-path="url(#clipPath992-9)"
       transform="translate(3.3590726,-0.8270008)" />
    <path
       style="fill:#e9bf1e;fill-opacity:1;fill-rule:evenodd;stroke:#e9bf1e;stroke-width:6.92144;stroke-linecap:round;stroke-linejoin:miter;stroke-miterlimit:4;stroke-dasharray:none;stroke-opacity:1"
       id="path3229-4"
       d="m 396.3626,695.61249 27.72419,-15.34583"
       inkscape:connector-curvature="0" />
    <path
       style="fill:#e9bf1e;fill-opacity:1;fill-rule:evenodd;stroke:#e9bf1e;stroke-width:6.92144;stroke-linecap:round;stroke-linejoin:miter;stroke-miterlimit:4;stroke-dasharray:none;stroke-opacity:1"
       id="path3231-5"
       d="m 378.45293,678.6067 10.58725,-30.87372"
       inkscape:connector-curvature="0" />
    <path
       style="fill:#e9bf1e;fill-opacity:1;fill-rule:evenodd;stroke:#e9bf1e;stroke-width:6.92144;stroke-linecap:round;stroke-linejoin:miter;stroke-miterlimit:4;stroke-dasharray:none;stroke-opacity:1"
       id="path3233-0"
       d="m 397.5558,719.25913 30.9749,5.18725"
       inkscape:connector-curvature="0" />
    <path
       style="fill:#e9bf1e;fill-opacity:1;fill-rule:evenodd;stroke:#e9bf1e;stroke-width:6.92144;stroke-linecap:round;stroke-linejoin:miter;stroke-miterlimit:4;stroke-dasharray:none;stroke-opacity:1"
       id="path3235-3"
       d="M 348.36143,682.24316 329.32365,656.17553"
       inkscape:connector-curvature="0" />
    <path
       style="fill:#e9bf1e;fill-opacity:1;fill-rule:evenodd;stroke:#e9bf1e;stroke-width:6.92144;stroke-linecap:round;stroke-linejoin:miter;stroke-miterlimit:4;stroke-dasharray:none;stroke-opacity:1"
       id="path3237-6"
       d="m 335.45577,702.93713 -31.30789,-2.05822"
       inkscape:connector-curvature="0" />
    <path
       style="fill:#e9bf1e;fill-opacity:1;fill-rule:evenodd;stroke:#e9bf1e;stroke-width:6.92144;stroke-linecap:round;stroke-linejoin:miter;stroke-miterlimit:4;stroke-dasharray:none;stroke-opacity:1"
       id="path3239-1"
       d="m 340.43778,728.5394 -25.16687,19.57937"
       inkscape:connector-curvature="0" />
    <path
       style="fill:#e9bf1e;fill-opacity:1;fill-rule:evenodd;stroke:#e9bf1e;stroke-width:6.92144;stroke-linecap:round;stroke-linejoin:miter;stroke-miterlimit:4;stroke-dasharray:none;stroke-opacity:1"
       id="path3241-0"
       d="m 387.57292,743.2333 19.64712,25.5686"
       inkscape:connector-curvature="0" />
    <path
       style="fill:#e9bf1e;fill-opacity:1;fill-rule:evenodd;stroke:#e9bf1e;stroke-width:6.92144;stroke-linecap:round;stroke-linejoin:miter;stroke-miterlimit:4;stroke-dasharray:none;stroke-opacity:1"
       id="path3243-6"
       d="m 354.61264,773.86403 8.9503,-31.43481"
       inkscape:connector-curvature="0" />
    <path
       style="fill:#e9bf1e;fill-opacity:1;fill-rule:nonzero;stroke:#e9bf1e;stroke-width:8.26134;stroke-miterlimit:4;stroke-dasharray:none;stroke-opacity:1"
       id="path3245-3"
       d="m 387.78247,709.3684 c 0,11.01231 -8.53845,19.93954 -19.07115,19.93954 -10.5327,0 -19.07115,-8.92723 -19.07115,-19.93954 0,-11.0123 8.53845,-19.93953 19.07115,-19.93953 10.5327,0 19.07115,8.92723 19.07115,19.93953 z"
       inkscape:connector-curvature="0" />
    <circle
       style="fill:#000000;fill-opacity:1;stroke-width:2.12599;stroke-miterlimit:4;stroke-dasharray:none"
       id="path2904-2"
       cx="254.36775"
       cy="756.12677"
       r="11.99661"
       clip-path="url(#clipPath980-0)"
       transform="translate(3.3590726,-0.8270008)" />
    <rect
       style="fill:#000100;fill-opacity:1;stroke-width:3.038;stroke-miterlimit:4;stroke-dasharray:none"
       id="rect3824-0"
       width="19.453962"
       height="20.102428"
       x="111.70515"
       y="880.30792"
       clip-path="url(#clipPath976-3)"
       transform="translate(3.3590726,-0.8270008)" />
    <path
       style="fill:#000100;fill-opacity:1;stroke-width:3.038;stroke-miterlimit:4;stroke-dasharray:none"
       d="m 253,661.56477 -0.5625,0.0625 H 253 Z m 0,0.0625 v 66.875 l -1.96875,3.375 v 141.78125 h -0.8125 v -11.125 H 246.125 v 11.375 h -6.1875 v -3.34375 h -7.90625 v -2.96875 h -1.5 v -9.28125 l -0.96875,0.25 v -6.0625 h -0.875 v -3.09375 h -1.25 v -10.375 h -1.96875 v 10.5 h -1 v 3.21875 H 223.5 v 5.5625 h -1.125 v 2.96875 l -0.5,-0.125 v 7.53125 l -0.5,0.15625 v 1.46875 h -1.59375 v 4.34375 h -2.84375 v -1.875 H 211.25 v -0.875 h -1.75 l -0.21875,-0.875 h -2.59375 l -0.375,-1.46875 h -3.21875 v 25.125 h -71.75 V 880.34602 H 124.375 l -4.5625,-5.96875 v -37.09375 h -13.71875 v 9.40625 l -9.34375,0.0625 -1.28125,5.25 h -7.0625 l -2.59375,10.53125 h -3.46875 l -2.3125,-9.53125 c -0.765215,-3.1465 -1.488857,-1.36728 -4.15625,0.46875 -3.541034,2.43737 -7.84375,15.28125 -7.84375,15.28125 v 58.15623 c 0,0 0.301423,2.1169 0.6875,2.6563 0.386125,0.5393 2.71875,1.0312 2.71875,1.0312 h 275.78125 1.84375 87.03125 c 0,0 3.46811,-0.062 4.65625,-1.375 1.51917,-1.6787 1.15625,-6.37498 1.15625,-6.37498 l -0.21875,-49.6875 v -21.71875 l -0.0312,-14.90625 -6.15625,-5.1875 v 16.8125 l -8.5625,-1.9375 v -17.875 h -3.15625 l -7.1875,-6.8125 h -6.4375 v -9.75 h -5.21875 v 9 h -8.71875 l -6.6875,9.90625 v 11.75 l -2.21875,3.78125 h -4.90625 v -6.46875 h -4.1875 v 6.71875 h -4.375 -2.71875 v 2.84375 h -5.5625 l -3.53125,-3 v -9.46875 l -2.0625,-3.5 -2.03125,3.46875 v 8.21875 h -2.25 v 3.5625 l -1.875,0.0625 h -6.75 v 2.1875 h -2.9375 v -4.875 h -2.1875 l -7.34375,0.21875 h -2 v 20.65625 h -5.8125 v -5.6875 h -4.4375 v 8.28125 H 318.5 v 6.6875 h -7.65625 v -50.21875 h -4.28125 c 0.0562,-0.33985 0.0937,-0.68287 0.0937,-1.03125 0,-5.90927 -8.26183,-10.71875 -18.46875,-10.71875 -10.20692,0 -18.5,4.80948 -18.5,10.71875 0,0.34838 0.0375,0.6914 0.0937,1.03125 h -4.4375 v 47.75 H 258 v -139.8125 l -3.15625,-5.4375 v -66.78125 z"
       id="path3826-6"
       inkscape:connector-curvature="0"
       clip-path="url(#clipPath972-0)"
       transform="translate(3.3590726,-0.8270008)" />
    <path
       style="fill:#3a94f3;fill-opacity:1;stroke:#3a94f3;stroke-width:0;stroke-miterlimit:4;stroke-dasharray:none;stroke-opacity:1"
       id="path3189-5"
       d="m 121.11837,718.84624 c 3.47014,-4.3295 9.79383,-5.0243 14.12147,-1.55183 4.32764,3.47245 5.01936,9.79635 1.54472,14.12225 -3.47014,4.32949 -9.79383,5.02429 -14.12147,1.55182 -4.32764,-3.47246 -5.01936,-9.79636 -1.54472,-14.12224 z"
       inkscape:connector-curvature="0" />
    <path
       style="fill:#3a94f3;fill-opacity:1;stroke:#3a94f3;stroke-width:9.31372;stroke-linecap:round;stroke-linejoin:miter;stroke-miterlimit:4;stroke-dasharray:none;stroke-opacity:1"
       id="path3512-5"
       d="M 88.061497,776.09159 116.42552,740.74221"
       inkscape:connector-curvature="0" />
    <path
       style="fill:#3a94f3;fill-opacity:1;stroke:#3a94f3;stroke-width:9.31372;stroke-linecap:round;stroke-linejoin:miter;stroke-miterlimit:4;stroke-dasharray:none;stroke-opacity:1"
       id="path3514-4"
       d="m 105.41728,664.63451 16.43146,42.23865"
       inkscape:connector-curvature="0" />
    <path
       style="fill:#3a94f3;fill-opacity:1;stroke:#3a94f3;stroke-width:9.31372;stroke-linecap:round;stroke-linejoin:miter;stroke-miterlimit:4;stroke-dasharray:none;stroke-opacity:1"
       id="path3516-7"
       d="M 193.52867,735.06303 148.7332,728.17376"
       inkscape:connector-curvature="0" />
    <rect
       style="fill:#000000;fill-opacity:1;stroke:#000000;stroke-width:17.0196;stroke-miterlimit:4;stroke-dasharray:none;stroke-opacity:1"
       id="rect907-6"
       width="355.7608"
       height="121.15273"
       x="77.080818"
       y="926.89905"
       clip-path="url(#clipPath964-1)"
       transform="translate(3.3590726,-0.8270008)" />
    <path
       style="fill:#000000;fill-opacity:1;stroke-width:0.207659"
       d="m 133.99586,881.26844 v -14.88962 l -0.67489,-0.70518 -0.67489,-0.70517 0.46723,-0.31642 c 0.42042,-0.28472 0.46723,-0.48594 0.46723,-2.0086 v -1.69219 l -1.86893,-1.86027 c -1.02791,-1.02314 -1.86892,-2.02574 -1.86892,-2.228 0,-0.32463 0.21905,-0.36773 1.86892,-0.36773 1.73049,0 1.86893,-0.0308 1.86893,-0.41532 0,-0.33621 0.13844,-0.41531 0.72681,-0.41531 h 0.7268 v -1.11035 c 0,-1.07756 -0.0502,-1.19204 -1.03444,-2.35917 -0.11633,-0.13795 -0.21151,-0.44165 -0.21151,-0.67489 0,-0.42237 0.0512,-0.42408 12.66718,-0.42408 h 12.66717 v -0.83064 c 0,-0.69219 0.0692,-0.83063 0.41532,-0.83063 0.27688,0 0.41532,-0.13844 0.41532,-0.41532 0,-0.37483 0.13844,-0.41532 1.42016,-0.41532 h 1.42016 l -0.19537,-1.29081 c -0.13489,-0.89124 -0.12705,-1.31359 0.0253,-1.36438 0.12767,-0.0426 0.16941,-0.33003 0.099,-0.68195 -0.0769,-0.38431 -0.0356,-0.60837 0.11194,-0.60837 0.34342,0 0.28454,-0.43017 -0.12006,-0.87726 -0.417,-0.46078 -0.72202,-2.63648 -0.42287,-3.01634 0.11243,-0.14277 0.40324,-0.25804 0.64623,-0.25616 0.33136,0.003 0.5849,0.30107 1.01418,1.19404 0.31481,0.65484 0.66292,1.4476 0.77358,1.76168 0.1645,0.46689 0.32525,0.57048 0.88124,0.56788 0.37401,-0.002 0.77889,-0.0718 0.89972,-0.15574 0.50695,-0.35205 0.92243,-1.23051 0.92243,-1.95035 0,-1.20314 0.33082,-1.87714 0.88288,-1.79873 0.4343,0.0617 0.47503,0.19681 0.5834,1.93525 0.0641,1.02791 0.13416,1.52426 0.15575,1.10299 0.0216,-0.42126 0.31958,-1.27674 0.66221,-1.90107 0.67793,-1.23527 0.80092,-2.15773 0.31268,-2.34508 -0.17066,-0.0655 -0.26513,-0.19214 -0.20994,-0.28144 0.0552,-0.0893 -0.0445,-0.28263 -0.22166,-0.42961 -0.19591,-0.1626 -0.29974,-0.52567 -0.26514,-0.92721 0.0313,-0.36373 -0.10304,-0.904 -0.29938,-1.20365 -0.31492,-0.48063 -0.31765,-0.52887 -0.0235,-0.41599 0.28988,0.11123 0.29758,0.0714 0.0597,-0.30946 -0.15015,-0.24043 -0.32614,-0.35116 -0.39108,-0.24608 -0.065,0.10508 -0.13825,-0.27243 -0.1629,-0.83892 -0.0394,-0.90649 0.005,-1.02998 0.37052,-1.02998 0.22844,0 0.41534,0.0935 0.41534,0.20766 0,0.11421 0.14017,0.20766 0.31148,0.20766 0.17132,0 0.31149,0.0905 0.31149,0.20114 0,0.11063 0.1496,0.14374 0.33245,0.0736 0.18284,-0.0702 0.39695,-0.0232 0.47579,0.10437 0.095,0.15374 0.32996,0.0589 0.69679,-0.28122 0.30439,-0.28225 0.60423,-0.51318 0.66633,-0.51318 0.27508,0 0.0714,1.04987 -0.3746,1.93081 -0.2694,0.53214 -0.39496,0.99375 -0.28067,1.03185 0.11375,0.0379 0.24158,0.40786 0.28408,0.8221 0.0599,0.58412 -0.0402,0.87991 -0.44614,1.31792 -0.69424,0.7491 -0.68727,2.16538 0.0107,2.16538 0.15508,0 0.38963,0.21025 0.52123,0.46723 0.1316,0.25697 0.43859,0.62686 0.6822,0.82198 0.4388,0.35144 0.4449,0.34371 0.65543,-0.83064 0.20392,-1.13752 0.24006,-1.18804 0.89516,-1.25139 l 0.68267,-0.066 -0.0589,1.97524 c -0.0324,1.08638 0.003,2.03753 0.0796,2.11366 0.0761,0.0761 0.75106,0.18761 1.49984,0.24771 l 1.36141,0.10928 v -0.55585 c 0,-1.04284 1.75757,-3.75088 2.00858,-3.09479 0.0522,0.13635 0.22897,0.19644 0.39292,0.13353 0.38407,-0.14738 0.37738,-0.0312 -0.10729,1.86388 -0.32674,1.27754 -0.36817,1.81347 -0.2136,2.7632 0.17687,1.08675 0.0594,2.24604 -0.33069,3.26252 -0.11361,0.29606 0.0221,0.3468 0.92743,0.3468 0.80424,0 1.06051,0.0753 1.06051,0.31149 0,0.19381 0.19612,0.31149 0.51915,0.31149 0.46723,0 0.51914,0.0831 0.51914,0.83063 v 0.83064 h 12.77101 c 8.6987,0 12.77101,0.0688 12.77101,0.21585 0,0.11872 -0.32707,0.70151 -0.72681,1.29509 -0.57786,0.85808 -0.7268,1.28195 -0.7268,2.0684 0,0.96061 0.018,0.98915 0.62297,0.98915 0.52607,0 0.62298,0.0807 0.62298,0.51914 0,0.51733 0.007,0.51915 1.97275,0.51915 1.74923,0 1.97276,0.0417 1.97276,0.36773 0,0.20226 -0.84102,1.20485 -1.86893,2.228 l -1.86892,1.86027 v 1.61369 c 0,1.23219 0.0676,1.61368 0.28606,1.61368 0.15733,0 0.40519,0.14355 0.5508,0.319 0.22151,0.26689 0.16844,0.41952 -0.32491,0.93446 -0.3243,0.33851 -0.71233,0.61547 -0.86228,0.61547 -0.22256,0 -0.27264,2.74664 -0.27264,14.95142 v 14.95142 h -4.67232 -4.67232 v -12.771 -12.77101 h -1.7651 -1.7651 v 12.77101 12.771 h -3.53019 -3.5302 v -12.771 -12.77101 h -2.90722 -2.90722 v 12.77101 12.771 h -2.59574 -2.59573 V 884.3505 c 0,-6.49415 -0.0594,-12.24111 -0.13205,-12.771 l -0.13206,-0.96345 h -5.3709 -5.3709 v 12.77101 12.771 h -2.59573 -2.59573 v -12.87483 -12.87484 h -2.8034 -2.80339 v 12.87484 12.87483 h -3.73785 -3.73786 v -12.771 -12.77101 h -1.66127 -1.66127 v 12.77101 12.771 h -4.87997 -4.87998 z m 37.58621,-45.20213 c 0,-0.0431 0.16353,-0.20665 0.3634,-0.3634 0.32936,-0.2583 0.33671,-0.25096 0.0784,0.0784 -0.27128,0.34591 -0.44181,0.45591 -0.44181,0.285 z"
       id="path957" />
  </g>
</svg>
