<?xml version="1.0" encoding="UTF-8" standalone="no"?>
<!-- Created with Inkscape (http://www.inkscape.org/) -->

<svg
   xmlns:dc="http://purl.org/dc/elements/1.1/"
   xmlns:cc="http://creativecommons.org/ns#"
   xmlns:rdf="http://www.w3.org/1999/02/22-rdf-syntax-ns#"
   xmlns:svg="http://www.w3.org/2000/svg"
   xmlns="http://www.w3.org/2000/svg"
   xmlns:sodipodi="http://sodipodi.sourceforge.net/DTD/sodipodi-0.dtd"
   xmlns:inkscape="http://www.inkscape.org/namespaces/inkscape"
   version="1.1"
   id="svg2"
   xml:space="preserve"
   width="1440"
   height="576"
   viewBox="0 0 1440 576"
   sodipodi:docname="mcp.svg"
   inkscape:version="0.92.5 (2060ec1f9f, 2020-04-08)"><metadata
     id="metadata8"><rdf:RDF><cc:Work
         rdf:about=""><dc:format>image/svg+xml</dc:format><dc:type
           rdf:resource="http://purl.org/dc/dcmitype/StillImage" /><dc:title></dc:title></cc:Work></rdf:RDF></metadata><defs
     id="defs6"><clipPath
       clipPathUnits="userSpaceOnUse"
       id="clipPath78"><path
         d="M 48.6,310.8893 H 963.36 V 427.68 H 48.6 Z"
         id="path76"
         inkscape:connector-curvature="0" /></clipPath><clipPath
       clipPathUnits="userSpaceOnUse"
       id="clipPath88"><path
         d="M 48.6,310.8893 H 963.36 V 427.68 H 48.6 Z"
         id="path86"
         inkscape:connector-curvature="0" /></clipPath><clipPath
       clipPathUnits="userSpaceOnUse"
       id="clipPath166"><path
         d="m 48.6,168.40465 h 914.76 v 116.7907 H 48.6 Z"
         id="path164"
         inkscape:connector-curvature="0" /></clipPath><clipPath
       clipPathUnits="userSpaceOnUse"
       id="clipPath176"><path
         d="m 48.6,168.40465 h 914.76 v 116.7907 H 48.6 Z"
         id="path174"
         inkscape:connector-curvature="0" /></clipPath><clipPath
       clipPathUnits="userSpaceOnUse"
       id="clipPath254"><path
         d="M 48.6,25.92 H 963.36 V 142.7107 H 48.6 Z"
         id="path252"
         inkscape:connector-curvature="0" /></clipPath><clipPath
       clipPathUnits="userSpaceOnUse"
       id="clipPath264"><path
         d="M 48.6,25.92 H 963.36 V 142.7107 H 48.6 Z"
         id="path262"
         inkscape:connector-curvature="0" /></clipPath></defs><sodipodi:namedview
     pagecolor="#ffffff"
     bordercolor="#666666"
     borderopacity="1"
     objecttolerance="10"
     gridtolerance="10"
     guidetolerance="10"
     inkscape:pageopacity="0"
     inkscape:pageshadow="2"
     inkscape:window-width="1920"
     inkscape:window-height="1052"
     id="namedview4"
     showgrid="false"
     inkscape:zoom="0.31666667"
     inkscape:cx="720"
     inkscape:cy="288"
     inkscape:window-x="0"
     inkscape:window-y="0"
     inkscape:window-maximized="1"
     inkscape:current-layer="g10" /><g
     id="g10"
     inkscape:groupmode="layer"
     inkscape:label="mcp"
     transform="matrix(1.3333333,0,0,-1.3333333,0,576)"><path
       d="M 0,0 H 1080 V 432 H 0 Z"
       style="fill:#ffffff;fill-opacity:1;fill-rule:nonzero;stroke:none"
       id="path12"
       inkscape:connector-curvature="0" /><path
       d="M 48.6,310.8893 H 963.36 V 427.68 H 48.6 Z"
       style="fill:#ffffff;fill-opacity:1;fill-rule:nonzero;stroke:none"
       id="path14"
       inkscape:connector-curvature="0" /><path
       d="m 102.40941,310.8893 v -3.5"
       style="fill:#000000;fill-opacity:1;fill-rule:nonzero;stroke:#000000;stroke-width:0.80000001;stroke-linecap:butt;stroke-linejoin:round;stroke-miterlimit:10;stroke-dasharray:none;stroke-opacity:1"
       id="path16"
       inkscape:connector-curvature="0" /><text
       transform="matrix(1,0,0,-1,51.378162,291.73305)"
       style="font-variant:normal;font-weight:normal;font-size:16px;font-family:'DejaVu Sans';-inkscape-font-specification:DejaVuSans;writing-mode:lr-tb;fill:#000000;fill-opacity:1;fill-rule:nonzero;stroke:none"
       id="text20"><tspan
         x="0 4.7199998 14.528 24.672001 30.448 40.624001 50.799999 55.888 66.064003 76.239998 81.632004 91.807999"
         y="0"
         sodipodi:role="line"
         id="tspan18">Jan-09 12:00</tspan></text>
<path
       d="m 263.83765,310.8893 v -3.5"
       style="fill:#000000;fill-opacity:1;fill-rule:nonzero;stroke:#000000;stroke-width:0.80000001;stroke-linecap:butt;stroke-linejoin:round;stroke-miterlimit:10;stroke-dasharray:none;stroke-opacity:1"
       id="path22"
       inkscape:connector-curvature="0" /><text
       transform="matrix(1,0,0,-1,212.8064,291.73305)"
       style="font-variant:normal;font-weight:normal;font-size:16px;font-family:'DejaVu Sans';-inkscape-font-specification:DejaVuSans;writing-mode:lr-tb;fill:#000000;fill-opacity:1;fill-rule:nonzero;stroke:none"
       id="text26"><tspan
         x="0 4.7199998 14.528 24.672001 30.448 40.624001 50.799999 55.888 66.064003 76.239998 81.632004 91.807999"
         y="0"
         sodipodi:role="line"
         id="tspan24">Jan-12 12:00</tspan></text>
<path
       d="m 425.26588,310.8893 v -3.5"
       style="fill:#000000;fill-opacity:1;fill-rule:nonzero;stroke:#000000;stroke-width:0.80000001;stroke-linecap:butt;stroke-linejoin:round;stroke-miterlimit:10;stroke-dasharray:none;stroke-opacity:1"
       id="path28"
       inkscape:connector-curvature="0" /><text
       transform="matrix(1,0,0,-1,374.23463,291.73305)"
       style="font-variant:normal;font-weight:normal;font-size:16px;font-family:'DejaVu Sans';-inkscape-font-specification:DejaVuSans;writing-mode:lr-tb;fill:#000000;fill-opacity:1;fill-rule:nonzero;stroke:none"
       id="text32"><tspan
         x="0 4.7199998 14.528 24.672001 30.448 40.624001 50.799999 55.888 66.064003 76.239998 81.632004 91.807999"
         y="0"
         sodipodi:role="line"
         id="tspan30">Jan-15 12:00</tspan></text>
<path
       d="m 586.69412,310.8893 v -3.5"
       style="fill:#000000;fill-opacity:1;fill-rule:nonzero;stroke:#000000;stroke-width:0.80000001;stroke-linecap:butt;stroke-linejoin:round;stroke-miterlimit:10;stroke-dasharray:none;stroke-opacity:1"
       id="path34"
       inkscape:connector-curvature="0" /><text
       transform="matrix(1,0,0,-1,535.66287,291.73305)"
       style="font-variant:normal;font-weight:normal;font-size:16px;font-family:'DejaVu Sans';-inkscape-font-specification:DejaVuSans;writing-mode:lr-tb;fill:#000000;fill-opacity:1;fill-rule:nonzero;stroke:none"
       id="text38"><tspan
         x="0 4.7199998 14.528 24.672001 30.448 40.624001 50.799999 55.888 66.064003 76.239998 81.632004 91.807999"
         y="0"
         sodipodi:role="line"
         id="tspan36">Jan-18 12:00</tspan></text>
<path
       d="m 748.12235,310.8893 v -3.5"
       style="fill:#000000;fill-opacity:1;fill-rule:nonzero;stroke:#000000;stroke-width:0.80000001;stroke-linecap:butt;stroke-linejoin:round;stroke-miterlimit:10;stroke-dasharray:none;stroke-opacity:1"
       id="path40"
       inkscape:connector-curvature="0" /><text
       transform="matrix(1,0,0,-1,697.0911,291.73305)"
       style="font-variant:normal;font-weight:normal;font-size:16px;font-family:'DejaVu Sans';-inkscape-font-specification:DejaVuSans;writing-mode:lr-tb;fill:#000000;fill-opacity:1;fill-rule:nonzero;stroke:none"
       id="text44"><tspan
         x="0 4.7199998 14.528 24.672001 30.448 40.624001 50.799999 55.888 66.064003 76.239998 81.632004 91.807999"
         y="0"
         sodipodi:role="line"
         id="tspan42">Jan-21 12:00</tspan></text>
<path
       d="m 909.55059,310.8893 v -3.5"
       style="fill:#000000;fill-opacity:1;fill-rule:nonzero;stroke:#000000;stroke-width:0.80000001;stroke-linecap:butt;stroke-linejoin:round;stroke-miterlimit:10;stroke-dasharray:none;stroke-opacity:1"
       id="path46"
       inkscape:connector-curvature="0" /><text
       transform="matrix(1,0,0,-1,858.51934,291.73305)"
       style="font-variant:normal;font-weight:normal;font-size:16px;font-family:'DejaVu Sans';-inkscape-font-specification:DejaVuSans;writing-mode:lr-tb;fill:#000000;fill-opacity:1;fill-rule:nonzero;stroke:none"
       id="text50"><tspan
         x="0 4.7199998 14.528 24.672001 30.448 40.624001 50.799999 55.888 66.064003 76.239998 81.632004 91.807999"
         y="0"
         sodipodi:role="line"
         id="tspan48">Jan-24 12:00</tspan></text>
<text
       transform="matrix(1,0,0,-1,446.33937,272.24868)"
       style="font-variant:normal;font-weight:normal;font-size:16px;font-family:'DejaVu Sans';-inkscape-font-specification:DejaVuSans;writing-mode:lr-tb;fill:#000000;fill-opacity:1;fill-rule:nonzero;stroke:none"
       id="text54"><tspan
         x="0 8.8000002 18.639999 24.912001 32.911999 39.183998 43.632 59.216 69.056 77.391998 83.664001 93.472 109.056"
         y="0"
         sodipodi:role="line"
         id="tspan52">cet_timestamp</tspan></text>
<path
       d="M 48.6,331.50827 H 45.1"
       style="fill:#000000;fill-opacity:1;fill-rule:nonzero;stroke:#000000;stroke-width:0.80000001;stroke-linecap:butt;stroke-linejoin:round;stroke-miterlimit:10;stroke-dasharray:none;stroke-opacity:1"
       id="path56"
       inkscape:connector-curvature="0" /><text
       transform="matrix(1,0,0,-1,31.4125,325.43015)"
       style="font-variant:normal;font-weight:normal;font-size:16px;font-family:'DejaVu Sans';-inkscape-font-specification:DejaVuSans;writing-mode:lr-tb;fill:#000000;fill-opacity:1;fill-rule:nonzero;stroke:none"
       id="text60"><tspan
         x="0"
         y="0"
         id="tspan58">0</tspan></text>
<path
       d="M 48.6,388.25512 H 45.1"
       style="fill:#000000;fill-opacity:1;fill-rule:nonzero;stroke:#000000;stroke-width:0.80000001;stroke-linecap:butt;stroke-linejoin:round;stroke-miterlimit:10;stroke-dasharray:none;stroke-opacity:1"
       id="path62"
       inkscape:connector-curvature="0" /><text
       transform="matrix(1,0,0,-1,21.225,382.177)"
       style="font-variant:normal;font-weight:normal;font-size:16px;font-family:'DejaVu Sans';-inkscape-font-specification:DejaVuSans;writing-mode:lr-tb;fill:#000000;fill-opacity:1;fill-rule:nonzero;stroke:none"
       id="text66"><tspan
         x="0 10.176"
         y="0"
         sodipodi:role="line"
         id="tspan64">50</tspan></text>
<text
       transform="matrix(0,1,1,0,13.896875,323.97215)"
       style="font-variant:normal;font-weight:normal;font-size:16px;font-family:'DejaVu Sans';-inkscape-font-specification:DejaVuSans;writing-mode:lr-tb;fill:#000000;fill-opacity:1;fill-rule:nonzero;stroke:none"
       id="text70"><tspan
         x="0 6.2399998 16.351999 28.063999 39.183998 44.576 58.383999 74.208 84.351997"
         y="0"
         sodipodi:role="line"
         id="tspan68">[EUR/MWh]</tspan></text>
<g
       id="g72"><g
         id="g74"
         clip-path="url(#clipPath78)"><path
           d="m 48.6,370.46926 2.242059,-1.63616 h 2.242059 l 2.242058,1.63616 2.242059,5.12914 2.242059,0.21131 2.242059,1.07654 2.242059,-0.61529 h 4.484117 l 2.242059,-3.30274 2.242059,-4.13512 4.484118,-1.77293 h 4.484117 l 4.484118,1.77293 2.242059,7.43786 h 6.726176 l 2.242059,-4.13194 2.242056,-3.30592 4.48412,-1.77293 2.24206,-1.53094 2.24206,-1.10253 2.24206,2.63347 2.24206,1.77293 h 2.24206 l 2.24205,-0.86134 4.48412,-4.79142 2.24206,-0.62237 2.24206,-1.96839 2.24206,-10.16569 h 8.96823 l 2.24206,10.16569 2.24206,2.59076 2.24206,5.65276 h 11.21029 l 4.48412,-1.77293 2.24206,0.91159 2.24206,2.4975 h 2.24206 l 2.24206,1.66976 h 4.48411 l 2.24206,-3.30592 h 2.24206 l 4.48412,-4.9313 4.48412,-1.34383 2.24206,0.62237 h 6.72617 l 2.24206,3.87983 4.48412,3.40909 h 2.24206 l 2.24206,-1.63616 4.48411,-1.77293 h 4.48412 l 4.48412,3.40909 4.48412,-3.40909 2.24206,-3.87983 2.24205,-0.62237 h 2.24206 l 2.24206,-1.96839 h 17.93647 l 2.24206,2.59076 2.24206,3.87983 h 4.48412 l 2.24206,-3.15837 2.24206,-1.34383 h 2.24205 l 2.24206,0.62237 2.24206,5.65276 2.24206,9.08991 2.24206,2.40224 4.48412,-3.439 h 4.48411 l 2.24206,-3.91803 2.24206,-2.49896 2.24206,-1.63616 h 6.72618 l 2.24206,3.30592 2.24206,7.12691 2.24205,6.67577 h 31.38883 l 2.24206,-5.61645 2.24206,-3.439 2.24205,-1.28785 2.24206,-3.45938 H 353.52 l 2.24206,4.74723 2.24206,6.10347 2.24206,2.95198 H 391.635 l 4.48412,-9.05545 2.24206,-1.07654 2.24205,-3.67069 h 4.48412 l 2.24206,0.8292 2.24206,3.91803 2.24206,6.10347 2.24206,2.95198 h 11.21029 l 2.24206,-2.95198 H 429.75 l 2.24206,2.95198 h 8.96823 l 2.24206,-7.35681 2.24206,-1.69864 2.24206,-1.28785 2.24206,-5.86228 h 4.48412 l 2.24206,-0.90302 h 2.24205 l 2.24206,0.90302 h 2.24206 l 2.24206,7.15013 2.24206,5.31297 2.24206,1.70982 2.24206,-0.91932 2.24206,-0.7905 h 2.24205 l 2.24206,-1.87397 h 4.48412 l 2.24206,1.10738 2.24206,2.47641 h 6.72618 l 2.24205,-1.70982 2.24206,-2.93329 2.24206,-2.37968 2.24206,-4.74723 2.24206,-2.4029 h 6.72618 l 2.24205,0.73314 h 2.24206 l 2.24206,7.45375 2.24206,5.98603 h 6.72618 l 2.24206,-1.70982 2.24206,-3.61433 2.24205,-1.69864 h 2.24206 l 2.24206,1.03676 2.24206,2.40224 2.24206,3.58379 h 4.48412 l 2.24206,-2.47641 2.24205,-3.50962 2.24206,-1.03676 2.24206,-1.28785 2.24206,-5.12914 2.24206,-1.63616 h 8.96824 l 2.24205,1.63616 2.24206,4.00204 2.24206,2.41495 2.24206,1.69864 2.24206,-1.69864 2.24206,-1.28785 2.24206,-6.7653 2.24206,-1.77293 h 2.24206 l 2.24205,0.91159 2.24206,4.16726 2.24206,6.44587 h 2.24206 l 2.24206,-1.69864 2.24206,-3.91803 2.24206,-2.49896 2.24206,-1.63616 2.24205,-0.86134 4.48412,-4.79142 h 13.45236 l 2.24205,0.72146 2.24206,1.62743 2.24206,0.83385 h 2.24206 l 2.24206,-2.46128 h 6.72618 l 2.24205,3.15837 2.24206,3.40909 2.24206,2.49896 2.24206,-0.8292 2.24206,-2.4029 2.24206,-0.90302 h 2.24206 l 6.72617,-2.47002 h 2.24206 l 2.24206,0.69709 2.24206,0.91159 2.24206,1.76436 2.24206,8.84877 2.24206,7.35681 h 2.24206 l 2.24206,5.3001 h 4.48411 l 2.24206,-1.04467 h 4.48412 l 2.24206,1.04467 h 8.96823 l 2.24206,-5.3001 h 2.24206 l 2.24206,-4.50907 2.24206,-3.50962 2.24206,-1.65205 2.24206,-0.46125 h 6.72617 l 2.24206,1.07654 2.24206,6.10347 2.24206,8.25208 2.24206,0.83983 h 13.45235 l 2.24206,0.56087 h 8.96823 l 2.24206,-6.7008 h 2.24206 l 4.48412,-7.35681 2.24206,-1.69864 2.24206,-0.61529 h 6.72617 l 2.24206,0.61529 2.24206,9.05545 2.24206,5.3001 2.24206,1.4007 h 6.72618 l 2.24205,-6.7008 h 6.72618 l 2.24206,5.3001 2.24206,1.4007 h 4.48412 l 2.24205,-6.7008 h 2.24206 l 2.24206,-4.50907 2.24206,-3.50962 2.24206,-2.1133 2.24206,-3.67069 h 6.72618 l 2.24205,4.13194 2.24206,5.16167 2.24206,4.50907 h 8.96824 l 2.24206,-3.74248 4.48411,-3.61433 2.24206,0.68104 2.24206,2.93329 2.24206,3.74248 h 2.24206 l 2.24206,-3.74248 2.24206,-4.27621 2.24206,-1.03676 2.24205,-2.41495 2.24206,-4.73518 2.24206,-1.76436 H 887.13 l 2.24206,0.86134 h 4.48412 l 2.24206,8.05315 2.24205,4.54638 h 8.96824 l 2.24206,-1.10738 2.24206,-1.74036 2.24206,-0.66188 h 2.24206 l 2.24205,2.40224 2.24206,1.10738 h 4.48412 l 2.24206,-2.84774 2.24206,-1.69864 h 2.24206 l 2.24206,-4.74723 2.24205,-3.30592 h 2.24206 l 2.24206,-0.86134 h 8.96824 l 2.24206,1.76436 2.24205,3.2321 2.24206,3.91803 2.24206,-0.61529 2.24206,-4.13194 2.24206,-3.30592 v 0"
           style="fill:none;stroke:#1f77b4;stroke-width:1.5;stroke-linecap:square;stroke-linejoin:round;stroke-miterlimit:10;stroke-dasharray:none;stroke-opacity:1"
           id="path80"
           inkscape:connector-curvature="0" /></g></g><g
       id="g82"><g
         id="g84"
         clip-path="url(#clipPath88)"><path
           d="m 48.6,365.70392 2.242059,0.19294 2.242059,1.04415 2.242058,2.6217 2.242059,4.70999 2.242059,22.68739 2.242059,6.00382 2.242059,-13.6306 2.242059,-2.90544 2.242058,-10.6911 2.242059,-3.46156 2.242059,-7.53598 2.242059,-2.38337 2.242059,-0.77176 2.242059,-1.89534 2.242058,2.07693 2.242059,0.59017 2.242059,-0.0681 2.242059,8.54608 2.242059,15.15141 2.242058,10.18038 4.484118,-21.00768 2.242056,-5.62929 2.24206,-3.5183 2.24206,-0.1362 2.24206,-0.47667 2.24206,0.27239 2.24206,0.53342 2.24206,0.71501 6.72617,-2.16773 2.24206,-1.61161 2.24206,-9.19299 2.24206,-13.06313 2.24206,0.0454 2.24206,0.7831 2.24205,-1.41867 2.24206,1.32788 2.24206,-0.77176 2.24206,4.25602 2.24206,18.95345 2.24206,4.4149 2.24206,0.39723 2.24206,-1.9067 2.24206,-0.49937 2.24205,-0.19294 2.24206,-0.52207 2.24206,0.0681 2.24206,0.39723 2.24206,7.02526 2.24206,6.55993 2.24206,8.53473 2.24206,5.61794 2.24205,-17.97741 2.24206,-6.36699 2.24206,-3.47291 2.24206,0.0681 2.24206,-1.46407 2.24206,-0.0681 4.48412,-2.28122 2.24206,-0.13619 2.24205,-0.37453 2.24206,1.30517 2.24206,0.1135 2.24206,2.61035 2.24206,5.3796 2.24206,2.17908 2.24206,0.21564 2.24206,-1.94074 2.24206,5.03912 2.24205,-9.70371 2.24206,-0.24969 2.24206,-0.70366 2.24206,0.31778 2.24206,2.72385 2.24206,-2.19043 2.24206,2.70115 2.24206,-4.94832 2.24205,-5.3569 2.24206,-9.78316 2.24206,-5.45905 2.24206,-10.56626 2.24206,0.37453 2.24206,-2.38337 2.24206,0.0794 2.24206,7.57003 2.24205,-0.0567 2.24206,-6.61669 2.24206,9.1703 2.24206,3.16647 2.24206,1.40732 2.24206,0.53342 2.24206,7.29765 2.24206,-0.99875 2.24206,-5.78818 2.24205,13.35821 2.24206,1.55487 2.24206,4.58514 2.24206,9.70372 2.24206,2.61035 2.24206,4.68729 2.24206,-9.91935 2.24206,-5.10722 2.24205,5.41365 2.24206,-6.1854 2.24206,-7.00257 2.24206,2.11099 2.24206,-0.29509 2.24206,-1.87264 2.24206,-0.0454 2.24206,0.90795 2.24206,7.2636 2.24205,20.12243 2.24206,-1.98614 2.24206,-10.40737 2.24206,-2.97354 2.24206,2.99624 2.24206,-0.0681 2.24206,6.06056 2.24206,3.59775 2.24205,0.44263 2.24206,10.38467 2.24206,5.64064 2.24206,1.71376 2.24206,-4.19927 2.24206,-10.31658 2.24206,-9.43133 2.24206,-3.5864 2.24206,-7.9559 2.24205,-2.26988 2.24206,-1.69106 2.24206,-0.10214 2.24206,-0.46532 2.24206,0.24968 2.24206,1.10089 2.24206,7.53598 2.24206,26.2284 2.24205,6.63938 2.24206,0.13619 2.24206,1.0101 2.24206,0.63556 2.24206,-8.50068 2.24206,-5.68603 2.24206,-2.8033 2.24206,-0.77175 2.24206,4.56244 2.24205,16.79707 2.24206,-3.04163 2.24206,-16.2296 2.24206,1.40732 2.24206,-11.12238 2.24206,-2.49686 2.24206,-13.55115 2.24206,1.50947 2.24205,-1.89535 2.24206,-0.83985 2.24206,-0.32913 2.24206,-0.10215 2.24206,1.25978 2.24206,10.54357 2.24206,17.85256 2.24206,7.92186 2.24206,-5.19801 2.24205,-2.95084 2.24206,-1.78185 4.48412,0.51072 2.24206,-4.08577 2.24206,-0.27239 2.24206,1.80455 2.24206,4.98238 2.24205,7.34304 2.24206,-1.89535 2.24206,-16.21825 2.24206,-13.10852 2.24206,-3.31402 2.24206,-2.29257 2.24206,-0.51072 2.24206,-1.29383 2.24206,-3.76799 2.24205,-4.74404 2.24206,4.67594 2.24206,3.54101 2.24206,5.32285 2.24206,18.99885 2.24206,-1.98614 2.24206,3.66584 2.24206,-0.8285 2.24205,1.54352 2.24206,-0.77176 2.24206,-0.0795 2.24206,-1.56621 2.24206,-2.58766 2.24206,-0.59016 4.48412,6.2308 6.72617,-23.33431 2.24206,1.18034 2.24206,-3.6999 2.24206,-0.51072 2.24206,-1.54351 2.24206,-9.74911 2.24206,0.96469 2.24205,8.06941 2.24206,1.7932 2.24206,5.57254 2.24206,16.95596 2.24206,1.12359 2.24206,-2.55361 2.24206,0.22699 2.24206,0.0567 2.24206,0.81716 2.24205,-2.8487 2.24206,-4.3695 2.24206,-0.97605 2.24206,6.12866 2.24206,2.89409 2.24206,3.79069 2.24206,-3.76799 2.24206,-6.45779 2.24205,-11.8147 2.24206,1.27113 2.24206,-4.5511 2.24206,0.0681 2.24206,-0.8058 2.24206,-1.37328 2.24206,-2.03154 2.24206,2.02019 2.24206,-0.22698 2.24205,0.20428 2.24206,1.9294 2.24206,3.50695 2.24206,7.51329 2.24206,-5.43635 2.24206,-3.09838 2.24206,-1.31653 2.24206,-0.44262 2.24206,-0.23834 2.24205,0.22699 2.24206,2.599 2.24206,11.06564 2.24206,2.26987 2.24206,-5.90167 2.24206,-10.79325 2.24206,-1.7932 2.24206,1.75915 2.24205,-12.60915 2.24206,-3.62045 2.24206,-6.62803 2.24206,0.0227 2.24206,-0.65827 2.24206,0.60152 2.24206,-0.59017 2.24206,-1.10089 2.24206,1.29383 2.24205,4.15387 2.24206,18.65837 2.24206,0.34048 2.24206,1.7478 2.24206,-0.93065 2.24206,-1.94074 2.24206,-3.37076 2.24206,1.49811 2.24205,2.55361 2.24206,11.55366 2.24206,5.78818 2.24206,-6.50319 2.24206,-7.89916 2.24206,3.09838 2.24206,5.78818 2.24206,-11.07699 2.24205,-4.10847 2.24206,-1.63431 2.24206,-5.16396 2.24206,-7.68353 2.24206,-0.9193 2.24206,14.02783 2.24206,23.18676 2.24206,29.55376 2.24206,-10.04419 2.24206,1.45272 2.24205,-1.66836 2.24206,1.71375 2.24206,-5.48174 2.24206,-1.78185 2.24206,-4.40356 2.24206,-5.06182 2.24206,3.21187 2.24205,14.05053 2.24206,14.84497 2.24206,-15.91182 2.24206,-1.44136 2.24206,-13.95973 4.48412,-21.45031 2.24206,0.0794 6.72617,-1.45272 2.24206,0.27239 2.24206,3.57505 2.24206,13.82353 2.24206,15.94587 2.24206,3.48426 2.24206,-3.16648 2.24205,3.55236 2.24206,2.6444 2.24206,-3.10973 2.24206,-1.64566 2.24206,-4.59649 2.24206,-7.49059 2.24206,3.7226 2.24206,6.96851 2.24206,0.38588 2.24205,2.72385 2.24206,-11.34937 2.24206,-5.60659 2.24206,-10.12364 2.24206,-8.21695 2.24206,2.51956 2.24206,-2.31527 2.24206,-1.04414 2.24206,-0.12484 2.24205,0.13619 2.24206,3.31402 2.24206,16.38849 2.24206,21.55245 2.24206,-1.13493 2.24206,-0.942 2.24206,-5.425 2.24206,2.16773 2.24205,-1.53217 2.24206,-2.34932 2.24206,-0.46532 2.24206,-4.76674 2.24206,7.78567 2.24206,11.30398 2.24206,9.62426 2.24206,-18.18169 2.24205,-3.10973 2.24206,-9.35188 2.24206,-13.88028 2.24206,-9.94205 h 2.24206 l 2.24206,-0.59017 2.24206,-0.40857 2.24206,-0.10215 2.24206,0.0795 2.24205,2.25852 2.24206,11.31533 2.24206,19.816 2.24206,5.11856 4.48412,-0.20429 2.24206,-3.12107 2.24206,-1.41867 2.24206,-0.0113 2.24205,-6.96852 2.24206,-5.76548 2.24206,-1.82725 2.24206,8.04671 2.24206,9.97609 2.24206,-11.11103 2.24206,-1.10089 2.24206,-20.58776 2.24205,-1.22573 2.24206,-3.24592 2.24206,1.08954 2.24206,-0.56747 2.24206,-1.40732 2.24206,-0.39723 2.24206,0.61287 2.24206,1.8613 2.24206,12.76804 2.24205,20.63315 4.48412,1.9294 2.24206,-1.94075 2.24206,1.91805 2.24206,-3.27997 2.24206,-1.20303 2.24206,-0.40858 2.24206,-6.55994 2.24205,-0.18159 2.24206,12.91559 2.24206,0.60151 2.24206,-1.39597 2.24206,-10.29388 2.24206,-5.09587 2.24206,-4.69864 2.24206,-13.85758 2.24205,2.97354 2.24206,-4.95968 2.24206,-1.07819 2.24206,-0.88525 2.24206,-0.55612 2.24206,-0.8966 2.24206,2.11099 2.24206,0.77175 2.24205,0.93065 2.24206,10.94079 2.24206,1.80455 2.24206,0.54477 2.24206,-5.06181 v 0"
           style="fill:none;stroke:#ff7f0e;stroke-width:1.5;stroke-linecap:square;stroke-linejoin:round;stroke-miterlimit:10;stroke-dasharray:none;stroke-opacity:1"
           id="path90"
           inkscape:connector-curvature="0" /></g></g><g
       id="g92"><path
         d="M 48.6,310.8893 V 427.68"
         style="fill:none;stroke:#000000;stroke-width:0.80000001;stroke-linecap:square;stroke-linejoin:miter;stroke-miterlimit:10;stroke-dasharray:none;stroke-opacity:1"
         id="path94"
         inkscape:connector-curvature="0" /><path
         d="M 963.36,310.8893 V 427.68"
         style="fill:none;stroke:#000000;stroke-width:0.80000001;stroke-linecap:square;stroke-linejoin:miter;stroke-miterlimit:10;stroke-dasharray:none;stroke-opacity:1"
         id="path96"
         inkscape:connector-curvature="0" /><path
         d="M 48.6,310.8893 H 963.36"
         style="fill:none;stroke:#000000;stroke-width:0.80000001;stroke-linecap:square;stroke-linejoin:miter;stroke-miterlimit:10;stroke-dasharray:none;stroke-opacity:1"
         id="path98"
         inkscape:connector-curvature="0" /><path
         d="M 48.6,427.68 H 963.36"
         style="fill:none;stroke:#000000;stroke-width:0.80000001;stroke-linecap:square;stroke-linejoin:miter;stroke-miterlimit:10;stroke-dasharray:none;stroke-opacity:1"
         id="path100"
         inkscape:connector-curvature="0" /><path
         d="m 48.6,168.40465 h 914.76 v 116.7907 H 48.6 Z"
         style="fill:#ffffff;fill-opacity:1;fill-rule:nonzero;stroke:none"
         id="path102"
         inkscape:connector-curvature="0" /><path
         d="m 102.40941,168.40465 v -3.5"
         style="fill:#000000;fill-opacity:1;fill-rule:nonzero;stroke:#000000;stroke-width:0.80000001;stroke-linecap:butt;stroke-linejoin:round;stroke-miterlimit:10;stroke-dasharray:none;stroke-opacity:1"
         id="path104"
         inkscape:connector-curvature="0" /><text
         transform="matrix(1,0,0,-1,50.370349,149.2484)"
         style="font-variant:normal;font-weight:normal;font-size:16px;font-family:'DejaVu Sans';-inkscape-font-specification:DejaVuSans;writing-mode:lr-tb;fill:#000000;fill-opacity:1;fill-rule:nonzero;stroke:none"
         id="text108"><tspan
           x="0 10.944 21.104 27.68 33.456001 43.632 53.807999 58.896 69.071999 79.248001 84.639999 94.816002"
           y="0"
           sodipodi:role="line"
           id="tspan106">Apr-09 12:00</tspan></text>
<path
         d="m 263.83765,168.40465 v -3.5"
         style="fill:#000000;fill-opacity:1;fill-rule:nonzero;stroke:#000000;stroke-width:0.80000001;stroke-linecap:butt;stroke-linejoin:round;stroke-miterlimit:10;stroke-dasharray:none;stroke-opacity:1"
         id="path110"
         inkscape:connector-curvature="0" /><text
         transform="matrix(1,0,0,-1,211.79858,149.2484)"
         style="font-variant:normal;font-weight:normal;font-size:16px;font-family:'DejaVu Sans';-inkscape-font-specification:DejaVuSans;writing-mode:lr-tb;fill:#000000;fill-opacity:1;fill-rule:nonzero;stroke:none"
         id="text114"><tspan
           x="0 10.944 21.104 27.68 33.456001 43.632 53.807999 58.896 69.071999 79.248001 84.639999 94.816002"
           y="0"
           sodipodi:role="line"
           id="tspan112">Apr-12 12:00</tspan></text>
<path
         d="m 425.26588,168.40465 v -3.5"
         style="fill:#000000;fill-opacity:1;fill-rule:nonzero;stroke:#000000;stroke-width:0.80000001;stroke-linecap:butt;stroke-linejoin:round;stroke-miterlimit:10;stroke-dasharray:none;stroke-opacity:1"
         id="path116"
         inkscape:connector-curvature="0" /><text
         transform="matrix(1,0,0,-1,373.22682,149.2484)"
         style="font-variant:normal;font-weight:normal;font-size:16px;font-family:'DejaVu Sans';-inkscape-font-specification:DejaVuSans;writing-mode:lr-tb;fill:#000000;fill-opacity:1;fill-rule:nonzero;stroke:none"
         id="text120"><tspan
           x="0 10.944 21.104 27.68 33.456001 43.632 53.807999 58.896 69.071999 79.248001 84.639999 94.816002"
           y="0"
           sodipodi:role="line"
           id="tspan118">Apr-15 12:00</tspan></text>
<path
         d="m 586.69412,168.40465 v -3.5"
         style="fill:#000000;fill-opacity:1;fill-rule:nonzero;stroke:#000000;stroke-width:0.80000001;stroke-linecap:butt;stroke-linejoin:round;stroke-miterlimit:10;stroke-dasharray:none;stroke-opacity:1"
         id="path122"
         inkscape:connector-curvature="0" /><text
         transform="matrix(1,0,0,-1,534.65506,149.2484)"
         style="font-variant:normal;font-weight:normal;font-size:16px;font-family:'DejaVu Sans';-inkscape-font-specification:DejaVuSans;writing-mode:lr-tb;fill:#000000;fill-opacity:1;fill-rule:nonzero;stroke:none"
         id="text126"><tspan
           x="0 10.944 21.104 27.68 33.456001 43.632 53.807999 58.896 69.071999 79.248001 84.639999 94.816002"
           y="0"
           sodipodi:role="line"
           id="tspan124">Apr-18 12:00</tspan></text>
<path
         d="m 748.12235,168.40465 v -3.5"
         style="fill:#000000;fill-opacity:1;fill-rule:nonzero;stroke:#000000;stroke-width:0.80000001;stroke-linecap:butt;stroke-linejoin:round;stroke-miterlimit:10;stroke-dasharray:none;stroke-opacity:1"
         id="path128"
         inkscape:connector-curvature="0" /><text
         transform="matrix(1,0,0,-1,696.08329,149.2484)"
         style="font-variant:normal;font-weight:normal;font-size:16px;font-family:'DejaVu Sans';-inkscape-font-specification:DejaVuSans;writing-mode:lr-tb;fill:#000000;fill-opacity:1;fill-rule:nonzero;stroke:none"
         id="text132"><tspan
           x="0 10.944 21.104 27.68 33.456001 43.632 53.807999 58.896 69.071999 79.248001 84.639999 94.816002"
           y="0"
           sodipodi:role="line"
           id="tspan130">Apr-21 12:00</tspan></text>
<path
         d="m 909.55059,168.40465 v -3.5"
         style="fill:#000000;fill-opacity:1;fill-rule:nonzero;stroke:#000000;stroke-width:0.80000001;stroke-linecap:butt;stroke-linejoin:round;stroke-miterlimit:10;stroke-dasharray:none;stroke-opacity:1"
         id="path134"
         inkscape:connector-curvature="0" /><text
         transform="matrix(1,0,0,-1,857.51153,149.2484)"
         style="font-variant:normal;font-weight:normal;font-size:16px;font-family:'DejaVu Sans';-inkscape-font-specification:DejaVuSans;writing-mode:lr-tb;fill:#000000;fill-opacity:1;fill-rule:nonzero;stroke:none"
         id="text138"><tspan
           x="0 10.944 21.104 27.68 33.456001 43.632 53.807999 58.896 69.071999 79.248001 84.639999 94.816002"
           y="0"
           sodipodi:role="line"
           id="tspan136">Apr-24 12:00</tspan></text>
<text
         transform="matrix(1,0,0,-1,446.33937,129.76403)"
         style="font-variant:normal;font-weight:normal;font-size:16px;font-family:'DejaVu Sans';-inkscape-font-specification:DejaVuSans;writing-mode:lr-tb;fill:#000000;fill-opacity:1;fill-rule:nonzero;stroke:none"
         id="text142"><tspan
           x="0 8.8000002 18.639999 24.912001 32.911999 39.183998 43.632 59.216 69.056 77.391998 83.664001 93.472 109.056"
           y="0"
           sodipodi:role="line"
           id="tspan140">cet_timestamp</tspan></text>
<path
         d="M 48.6,189.02362 H 45.1"
         style="fill:#000000;fill-opacity:1;fill-rule:nonzero;stroke:#000000;stroke-width:0.80000001;stroke-linecap:butt;stroke-linejoin:round;stroke-miterlimit:10;stroke-dasharray:none;stroke-opacity:1"
         id="path144"
         inkscape:connector-curvature="0" /><text
         transform="matrix(1,0,0,-1,31.4125,182.9455)"
         style="font-variant:normal;font-weight:normal;font-size:16px;font-family:'DejaVu Sans';-inkscape-font-specification:DejaVuSans;writing-mode:lr-tb;fill:#000000;fill-opacity:1;fill-rule:nonzero;stroke:none"
         id="text148"><tspan
           x="0"
           y="0"
           id="tspan146">0</tspan></text>
<path
         d="M 48.6,245.77047 H 45.1"
         style="fill:#000000;fill-opacity:1;fill-rule:nonzero;stroke:#000000;stroke-width:0.80000001;stroke-linecap:butt;stroke-linejoin:round;stroke-miterlimit:10;stroke-dasharray:none;stroke-opacity:1"
         id="path150"
         inkscape:connector-curvature="0" /><text
         transform="matrix(1,0,0,-1,21.225,239.69235)"
         style="font-variant:normal;font-weight:normal;font-size:16px;font-family:'DejaVu Sans';-inkscape-font-specification:DejaVuSans;writing-mode:lr-tb;fill:#000000;fill-opacity:1;fill-rule:nonzero;stroke:none"
         id="text154"><tspan
           x="0 10.176"
           y="0"
           sodipodi:role="line"
           id="tspan152">50</tspan></text>
<text
         transform="matrix(0,1,1,0,13.896875,181.4875)"
         style="font-variant:normal;font-weight:normal;font-size:16px;font-family:'DejaVu Sans';-inkscape-font-specification:DejaVuSans;writing-mode:lr-tb;fill:#000000;fill-opacity:1;fill-rule:nonzero;stroke:none"
         id="text158"><tspan
           x="0 6.2399998 16.351999 28.063999 39.183998 44.576 58.383999 74.208 84.351997"
           y="0"
           sodipodi:role="line"
           id="tspan156">[EUR/MWh]</tspan></text>
</g><g
       id="g160"><g
         id="g162"
         clip-path="url(#clipPath166)"><path
           d="m 48.6,224.57552 2.242059,-3.15837 2.242059,-1.34383 h 2.242058 l 2.242059,-0.79276 2.242059,0.79276 2.242059,0.62237 2.242059,2.34889 2.242059,1.53094 2.242058,-1.53094 2.242059,-2.34889 2.242059,-0.62237 H 86.715 l 2.242059,5.41379 2.242059,4.16726 h 2.242058 l 2.242059,-3.30592 2.242059,-1.77293 2.242056,-3.15837 2.24206,-1.34383 h 8.96824 l 2.24206,0.62237 2.24206,3.87983 2.24205,1.77293 2.24206,5.63819 2.24206,-1.50307 2.24206,-3.2321 2.24206,-1.76436 2.24206,-2.44253 2.24206,-1.62743 h 2.24205 l 2.24206,0.5249 2.24206,2.63347 2.24206,1.77293 2.24206,8.05315 2.24206,5.06367 h 8.96823 l 4.48412,-3.36503 h 6.72618 l 2.24206,1.74036 2.24206,1.10738 2.24205,0.51729 h 4.48412 l 2.24206,-3.36503 2.24206,-1.69864 2.24206,-4.74723 2.24206,-2.4029 2.24206,-0.90302 h 2.24206 l 2.24205,1.63616 2.24206,5.8017 2.24206,4.05429 2.24206,1.87397 h 8.96824 l 2.24206,-3.61433 2.24205,-1.69864 2.24206,-0.61529 2.24206,-1.79967 2.24206,1.12711 4.48412,1.28785 2.24206,1.69864 2.24206,2.84774 2.24205,-1.10738 2.24206,-3.439 2.24206,-3.91803 2.24206,-3.2321 4.48412,-1.76436 2.24206,0.86134 h 6.72617 l 2.24206,3.30592 2.24206,4.13194 h 2.24206 l 2.24206,-4.13194 2.24206,-3.30592 2.24206,-1.77293 2.24206,-3.87983 2.24205,-0.62237 h 4.48412 l 2.24206,1.34383 2.24206,4.06996 4.48412,4.99646 2.24206,-0.8292 2.24205,-3.30592 2.24206,-1.77293 2.24206,-3.15837 4.48412,-1.34383 h 11.21029 l 2.24206,0.62237 h 2.24206 l 2.24206,-0.62237 2.24206,-12.13408 h 6.72618 l 2.24205,-7.88645 2.24206,7.88645 h 4.48412 l 2.24206,12.13408 2.24206,1.34383 2.24206,0.5249 h 4.48412 l 2.24205,-1.86873 2.24206,-12.13408 h 8.96824 l 2.24206,14.00281 h 8.96823 l 2.24206,-0.5249 4.48412,-1.34383 h 2.24206 l 2.24206,-12.13408 h 4.48411 l 2.24206,12.13408 2.24206,0.62237 2.24206,1.24636 h 2.24206 l 2.24206,-1.24636 2.24206,-12.75645 h 11.21029 l 2.24206,12.13408 2.24206,4.5022 2.24206,3.40909 2.24206,1.66976 2.24206,-3.30592 4.48411,-1.77293 2.24206,-2.63347 2.24206,-1.24636 h 6.72618 l 4.48411,4.79142 2.24206,4.99646 2.24206,5.61667 h 2.24206 l 2.24206,-1.69864 2.24206,-1.28785 2.24206,-5.12914 2.24206,-0.73314 2.24206,-0.90302 4.48411,3.30592 2.24206,4.74723 2.24206,2.37968 h 2.24206 l 2.24206,1.05932 2.24206,-1.05932 h 2.24206 l 2.24205,-2.37968 2.24206,-1.28785 2.24206,-3.45938 4.48412,-3.30592 h 2.24206 l 2.24206,3.30592 2.24206,4.13194 2.24206,2.31393 2.24205,0.68104 2.24206,1.05932 2.24206,-1.05932 2.24206,-2.37968 2.24206,-4.74723 4.48412,-3.30592 h 2.24206 l 2.24205,1.63616 2.24206,5.12914 2.24206,2.98649 2.24206,1.74036 h 2.24206 l 2.24206,-1.74036 2.24206,-4.1136 2.24206,-5.63819 2.24206,-4.9313 2.24205,-1.34383 2.24206,-12.13408 h 6.72618 l 2.24206,13.47791 2.24206,4.9313 h 6.72617 l 2.24206,-1.77293 2.24206,-2.63347 2.24206,-1.24636 2.24206,-0.62237 h 8.96823 l 4.48412,1.34383 2.24206,-0.72146 2.24206,-12.75645 h 17.93647 l 2.24206,13.47791 2.24206,1.62743 2.24206,0.83385 2.24206,-0.83385 h 4.48411 l 2.24206,-2.34889 h 4.48412 l 2.24206,0.72146 2.24206,0.5249 2.24206,1.10253 h 2.24206 l 2.24205,0.83385 h 2.24206 l 2.24206,-3.18274 2.24206,-12.75645 h 2.24206 l 2.24206,-4.61357 2.24206,-3.92357 h 4.48411 l 2.24206,3.92357 h 2.24206 l 2.24206,4.61357 h 38.115 l 2.24206,-4.61357 h 2.24206 l 2.24206,-2.98917 2.24206,2.98917 2.24205,4.61357 h 2.24206 l 2.24206,12.13408 h 4.48412 l 2.24206,0.62237 h 2.24206 l 2.24206,-0.62237 h 2.24206 l 2.24206,-12.13408 h 2.24205 l 2.24206,12.13408 H 734.67 l 2.24206,0.62237 h 8.96823 l 2.24206,-2.59076 2.24206,-10.16569 h 8.96824 l 2.24206,12.75645 2.24205,3.18274 2.24206,1.60868 2.24206,0.86134 4.48412,-1.77293 2.24206,-3.15837 h 2.24206 l 2.24206,-0.72146 2.24206,0.72146 2.24205,3.15837 2.24206,1.77293 2.24206,8.05315 2.24206,1.03676 h 2.24206 l 2.24206,0.66188 h 2.24206 l 2.24206,-0.66188 2.24205,-1.03676 2.24206,-3.91803 2.24206,-0.8292 h 2.24206 l 2.24206,-1.66976 2.24206,1.66976 2.24206,4.13194 2.24206,0.61529 2.24205,1.69864 h 2.24206 l 2.24206,-1.69864 2.24206,-4.74723 2.24206,-3.30592 h 2.24206 l 2.24206,-0.86134 h 2.24206 l 2.24206,0.86134 2.24205,3.30592 2.24206,5.78399 2.24206,0.66188 h 4.48412 l 2.24206,-0.66188 2.24206,-1.03676 2.24206,-3.91803 2.24206,-0.8292 h 2.24205 l 2.24206,-3.30592 h 2.24206 l 2.24206,1.63616 2.24206,4.00203 2.24206,2.41496 h 4.48412 l 2.24205,-1.28785 2.24206,-6.7653 2.24206,-1.77293 2.24206,-0.69709 h 4.48412 l 2.24206,0.69709 2.24206,1.77293 2.24206,8.05315 2.24205,1.69864 h 8.96824 l 2.24206,-0.66188 2.24206,-1.03676 2.24206,-3.91803 2.24206,-2.49896 2.24205,-1.63616 4.48412,6.7653 2.24206,1.28785 2.24206,1.03676 h 2.24206 l 2.24206,-1.65205 2.24206,-5.8017 2.24205,-2.4975 2.24206,-0.91159 h 4.48412 l 2.24206,0.91159 2.24206,1.76436 2.24206,7.15013 2.24206,1.69864 h 2.24205 l 2.24206,-0.66188 2.24206,-2.32461 2.24206,-6.7653 2.24206,-3.30387 v 0"
           style="fill:none;stroke:#1f77b4;stroke-width:1.5;stroke-linecap:square;stroke-linejoin:round;stroke-miterlimit:10;stroke-dasharray:none;stroke-opacity:1"
           id="path168"
           inkscape:connector-curvature="0" /></g></g><g
       id="g170"><g
         id="g172"
         clip-path="url(#clipPath176)"><path
           d="m 48.6,219.33779 2.242059,-1.10089 2.242059,-0.38588 2.242058,-0.21564 2.242059,-2.75789 2.242059,3.73394 2.242059,1.67971 2.242059,6.15135 2.242059,4.01768 2.242058,-7.28629 2.242059,-3.68855 2.242059,-7.39979 2.242059,-0.28373 2.242059,-7.1955 2.242059,-0.46533 2.242058,4.19927 2.242059,2.56496 2.242059,6.59398 2.242059,16.88786 2.242059,9.81721 2.242058,-3.84744 2.242059,-18.72646 2.242059,-3.13243 2.242056,0.20429 2.24206,-2.20177 2.24206,-1.78186 2.24206,0.29509 2.24206,1.61161 2.24206,-0.10215 4.48412,6.65074 2.24205,5.68603 2.24206,9.9988 2.24206,-1.69106 2.24206,-10.67976 2.24206,-5.60659 2.24206,-2.92813 2.24206,-0.60152 2.24205,-2.07694 2.24206,-0.34048 2.24206,1.58891 2.24206,4.16522 2.24206,13.6306 2.24206,9.10219 2.24206,18.21574 2.24206,-3.50695 2.24206,-6.78693 2.24205,-5.32285 2.24206,-9.21569 2.24206,-0.86255 2.24206,-0.56747 2.24206,-2.36067 2.24206,-2.61036 2.24206,2.45147 2.24206,4.33546 2.24205,7.47923 2.24206,1.10089 2.24206,-4.64189 2.24206,-5.61794 2.24206,-11.57636 2.24206,3.6091 2.24206,-4.35816 2.24206,-2.23582 2.24206,-2.8033 2.24205,1.78186 2.24206,3.17782 2.24206,12.29137 2.24206,9.27243 2.24206,20.47427 2.24206,-6.25351 2.24206,-16.78571 2.24206,0.19293 2.24206,-2.08828 2.24205,-5.90167 2.24206,-2.30392 2.24206,-3.25727 2.24206,-0.93065 2.24206,1.98614 2.24206,4.5511 2.24206,5.10721 2.24206,-1.73645 2.24205,-3.30267 2.24206,-0.14754 2.24206,-2.20178 2.24206,-7.1955 2.24206,-4.89158 2.24206,-1.62296 2.24206,-0.88525 4.48411,0.72636 2.24206,0.43128 4.48412,7.1728 2.24206,1.8613 2.24206,-5.96977 2.24206,-1.10089 2.24206,-2.34932 2.24206,-2.6444 2.24205,-0.69232 2.24206,-0.29508 2.24206,0.54477 2.24206,2.29257 2.24206,5.98112 2.24206,5.27746 2.24206,-0.41993 2.24206,-6.61668 2.24205,0.46532 2.24206,-3.18917 2.24206,-6.19676 2.24206,-5.44769 2.24206,-1.73646 2.24206,-1.03279 2.24206,-0.47667 2.24206,0.8739 4.48411,-2.17908 2.24206,0.96469 2.24206,2.70116 2.24206,-1.28248 2.24206,0.48802 2.24206,-2.97354 2.24206,-10.6684 2.24206,-18.27249 2.24205,3.27997 2.24206,11.95088 2.24206,9.73776 2.24206,14.10727 2.24206,4.65324 6.72618,0.0567 2.24206,-2.20178 2.24205,-3.43886 2.24206,-5.87897 2.24206,-0.0227 2.24206,-3.47291 2.24206,-0.71501 2.24206,5.41365 2.24206,17.95471 2.24206,6.95716 2.24205,4.58515 2.24206,-14.5499 2.24206,-3.50695 2.24206,0.48802 2.24206,-2.33797 2.24206,-3.24592 2.24206,-2.7125 2.24206,-1.08954 2.24206,-4.42625 2.24205,6.88906 2.24206,6.33295 2.24206,8.14885 2.24206,2.03154 2.24206,-1.70241 2.24206,-8.03535 2.24206,-8.56878 2.24206,-6.65073 2.24205,1.8386 2.24206,-2.25852 2.24206,2.23582 2.24206,-2.78059 2.24206,9.47672 2.24206,10.23713 2.24206,13.21067 2.24206,-3.03028 2.24206,-7.98996 2.24205,-4.40355 2.24206,-0.12485 2.24206,-1.64566 2.24206,0.80581 2.24206,-0.81716 2.24206,0.19294 2.24206,-0.21563 2.24206,2.99623 2.24205,7.20685 2.24206,5.48175 2.24206,2.89409 2.24206,-2.61036 2.24206,1.96344 2.24206,-5.26611 2.24206,-6.53723 2.24206,-1.71376 2.24206,-1.89534 2.24205,0.38588 2.24206,-0.12485 2.24206,3.23457 2.24206,10.97484 2.24206,16.09341 2.24206,4.27871 2.24206,-25.96736 2.24206,-2.34932 2.24205,-4.63054 2.24206,-1.7024 2.24206,-0.99875 2.24206,-1.29383 2.24206,-0.21564 2.24206,1.50947 2.24206,4.24467 2.24206,9.12489 2.24206,5.36825 2.24205,-0.37453 2.24206,-1.92939 2.24206,-2.44011 2.24206,-9.22704 2.24206,2.58765 2.24206,-5.41365 2.24206,-2.14503 2.24206,-0.57882 2.24205,-0.7831 2.24206,3.541 2.24206,10.39603 2.24206,8.79576 2.24206,6.14001 2.24206,-18.31789 2.24206,-7.96726 2.24206,-2.13368 2.24206,-2.48551 2.24205,-0.66961 2.24206,0.37453 2.24206,1.08954 2.24206,1.6797 2.24206,6.18541 2.24206,9.15894 2.24206,8.45528 2.24206,-3.27996 2.24205,-6.3216 2.24206,-3.00759 2.24206,-1.57756 2.24206,-8.39853 2.24206,-5.36826 2.24206,0.0567 2.24206,-1.91804 2.24206,0.99874 2.24206,0.56747 2.24205,0.0795 2.24206,1.19168 2.24206,10.94079 2.24206,-1.48676 2.24206,0.44262 2.24206,2.91679 2.24206,-1.08954 2.24206,-6.14001 2.24206,-4.63054 2.24205,-1.62296 2.24206,0.18159 2.24206,4.15387 2.24206,4.59649 2.24206,-0.37453 2.24206,3.89284 2.24206,3.30266 2.24206,1.15764 2.24205,-2.86004 2.24206,0.51072 2.24206,-7.72892 2.24206,-3.50696 2.24206,-1.78185 2.24206,0.36318 2.24206,-0.0567 2.24206,-0.56746 2.24206,1.61161 2.24205,4.56244 2.24206,3.41616 2.24206,-3.97228 2.24206,-1.08953 4.48412,-4.25602 2.24206,-4.38086 2.24206,-8.37583 2.24205,8.54607 2.24206,3.68855 2.24206,5.43635 2.24206,6.76422 2.24206,-7.00256 2.24206,-1.98614 2.24206,0.72636 2.24206,-4.69864 2.24205,-10.43007 2.24206,-0.10214 2.24206,-2.33797 2.24206,-1.18034 2.24206,-0.0341 6.72618,2.28123 4.48412,4.56244 2.24205,-0.0567 2.24206,-2.26988 2.24206,-1.86129 2.24206,-5.43635 2.24206,-4.46031 2.24206,3.7226 2.24206,1.80455 2.24205,6.97986 2.24206,7.67218 2.24206,0.37452 2.24206,3.6772 2.24206,-0.41993 2.24206,-1.60026 2.24206,-2.40606 2.24206,-0.74906 2.24206,-2.91679 2.24206,-1.03279 2.24205,-4.93698 2.24206,0.8739 2.24206,3.33672 2.24206,-0.26104 2.24206,-4.67594 2.24206,9.91935 2.24206,1.71376 2.24205,0.034 2.24206,-1.23708 2.24206,-0.76041 2.24206,-9.61291 2.24206,7.38844 2.24206,-5.01642 2.24206,0.73771 2.24206,6.1627 2.24206,4.78944 2.24205,7.74027 2.24206,3.43886 2.24206,-0.23834 2.24206,0.0681 4.48412,-11.62176 2.24206,-0.8058 2.24206,-0.0227 2.24206,-2.62171 2.24205,2.51956 2.24206,0.8966 2.24206,16.17286 2.24206,4.5284 2.24206,12.71129 2.24206,-13.06312 2.24206,0.26103 2.24206,-2.04289 2.24205,-5.79952 4.48412,-0.0794 2.24206,0.0794 2.24206,-1.65701 2.24206,3.72259 2.24206,8.1148 2.24206,0.23834 2.24205,0.59017 2.24206,-2.22448 2.24206,-0.86255 2.24206,-7.76297 2.24206,-7.2182 2.24206,1.46407 2.24206,-2.02019 2.24206,-0.74906 2.24206,0.38588 2.24205,6.11731 2.24206,7.1047 2.24206,6.69613 2.24206,4.89158 2.24206,-8.79576 2.24206,-6.94581 2.24206,1.18033 2.24206,-2.07694 2.24206,-4.84618 2.24205,-2.08828 2.24206,2.55361 2.24206,-0.23834 2.24206,7.20685 2.24206,4.00633 2.24206,4.95967 2.24206,1.27113 2.24206,-3.72259 4.48411,-16.70627 2.24206,8.9433 2.24206,-5.91302 2.24206,-3.85879 2.24206,-0.73771 2.24206,1.23708 2.24206,3.41617 2.24206,8.70496 2.24205,6.3443 2.24206,1.48677 2.24206,-5.54984 2.24206,-4.38086 2.24206,3.35941 2.24206,-3.82474 2.24206,-1.88399 2.24206,0.0908 2.24206,-0.0681 2.24205,0.0681 2.24206,2.65576 2.24206,1.86129 2.24206,-0.0227 2.24206,-0.56746 2.24206,-0.20429 2.24206,-2.64441 4.48411,-10.04419 2.24206,-0.0794 2.24206,-1.32788 2.24206,-1.97479 2.24206,1.30518 2.24206,1.96344 2.24206,5.98112 2.24206,8.28504 2.24205,-0.0908 2.24206,-1.73645 2.24206,-3.32537 2.24206,-1.18033 2.24206,-4.5511 v 0"
           style="fill:none;stroke:#ff7f0e;stroke-width:1.5;stroke-linecap:square;stroke-linejoin:round;stroke-miterlimit:10;stroke-dasharray:none;stroke-opacity:1"
           id="path178"
           inkscape:connector-curvature="0" /></g></g><g
       id="g180"><path
         d="m 48.6,168.40465 v 116.7907"
         style="fill:none;stroke:#000000;stroke-width:0.80000001;stroke-linecap:square;stroke-linejoin:miter;stroke-miterlimit:10;stroke-dasharray:none;stroke-opacity:1"
         id="path182"
         inkscape:connector-curvature="0" /><path
         d="m 963.36,168.40465 v 116.7907"
         style="fill:none;stroke:#000000;stroke-width:0.80000001;stroke-linecap:square;stroke-linejoin:miter;stroke-miterlimit:10;stroke-dasharray:none;stroke-opacity:1"
         id="path184"
         inkscape:connector-curvature="0" /><path
         d="M 48.6,168.40465 H 963.36"
         style="fill:none;stroke:#000000;stroke-width:0.80000001;stroke-linecap:square;stroke-linejoin:miter;stroke-miterlimit:10;stroke-dasharray:none;stroke-opacity:1"
         id="path186"
         inkscape:connector-curvature="0" /><path
         d="M 48.6,285.19535 H 963.36"
         style="fill:none;stroke:#000000;stroke-width:0.80000001;stroke-linecap:square;stroke-linejoin:miter;stroke-miterlimit:10;stroke-dasharray:none;stroke-opacity:1"
         id="path188"
         inkscape:connector-curvature="0" /><path
         d="M 48.6,25.92 H 963.36 V 142.7107 H 48.6 Z"
         style="fill:#ffffff;fill-opacity:1;fill-rule:nonzero;stroke:none"
         id="path190"
         inkscape:connector-curvature="0" /><path
         d="m 102.40941,25.92 v -3.5"
         style="fill:#000000;fill-opacity:1;fill-rule:nonzero;stroke:#000000;stroke-width:0.80000001;stroke-linecap:butt;stroke-linejoin:round;stroke-miterlimit:10;stroke-dasharray:none;stroke-opacity:1"
         id="path192"
         inkscape:connector-curvature="0" /><text
         transform="matrix(1,0,0,-1,54.057849,6.76375)"
         style="font-variant:normal;font-weight:normal;font-size:16px;font-family:'DejaVu Sans';-inkscape-font-specification:DejaVuSans;writing-mode:lr-tb;fill:#000000;fill-opacity:1;fill-rule:nonzero;stroke:none"
         id="text196"><tspan
           x="0 4.7199998 14.864 19.312 25.087999 35.264 45.439999 50.528 60.703999 70.879997 76.272003 86.447998"
           y="0"
           sodipodi:role="line"
           id="tspan194">Jul-09 12:00</tspan></text>
<path
         d="m 263.83765,25.92 v -3.5"
         style="fill:#000000;fill-opacity:1;fill-rule:nonzero;stroke:#000000;stroke-width:0.80000001;stroke-linecap:butt;stroke-linejoin:round;stroke-miterlimit:10;stroke-dasharray:none;stroke-opacity:1"
         id="path198"
         inkscape:connector-curvature="0" /><text
         transform="matrix(1,0,0,-1,215.48608,6.76375)"
         style="font-variant:normal;font-weight:normal;font-size:16px;font-family:'DejaVu Sans';-inkscape-font-specification:DejaVuSans;writing-mode:lr-tb;fill:#000000;fill-opacity:1;fill-rule:nonzero;stroke:none"
         id="text202"><tspan
           x="0 4.7199998 14.864 19.312 25.087999 35.264 45.439999 50.528 60.703999 70.879997 76.272003 86.447998"
           y="0"
           sodipodi:role="line"
           id="tspan200">Jul-12 12:00</tspan></text>
<path
         d="m 425.26588,25.92 v -3.5"
         style="fill:#000000;fill-opacity:1;fill-rule:nonzero;stroke:#000000;stroke-width:0.80000001;stroke-linecap:butt;stroke-linejoin:round;stroke-miterlimit:10;stroke-dasharray:none;stroke-opacity:1"
         id="path204"
         inkscape:connector-curvature="0" /><text
         transform="matrix(1,0,0,-1,376.91432,6.76375)"
         style="font-variant:normal;font-weight:normal;font-size:16px;font-family:'DejaVu Sans';-inkscape-font-specification:DejaVuSans;writing-mode:lr-tb;fill:#000000;fill-opacity:1;fill-rule:nonzero;stroke:none"
         id="text208"><tspan
           x="0 4.7199998 14.864 19.312 25.087999 35.264 45.439999 50.528 60.703999 70.879997 76.272003 86.447998"
           y="0"
           sodipodi:role="line"
           id="tspan206">Jul-15 12:00</tspan></text>
<path
         d="m 586.69412,25.92 v -3.5"
         style="fill:#000000;fill-opacity:1;fill-rule:nonzero;stroke:#000000;stroke-width:0.80000001;stroke-linecap:butt;stroke-linejoin:round;stroke-miterlimit:10;stroke-dasharray:none;stroke-opacity:1"
         id="path210"
         inkscape:connector-curvature="0" /><text
         transform="matrix(1,0,0,-1,538.34256,6.76375)"
         style="font-variant:normal;font-weight:normal;font-size:16px;font-family:'DejaVu Sans';-inkscape-font-specification:DejaVuSans;writing-mode:lr-tb;fill:#000000;fill-opacity:1;fill-rule:nonzero;stroke:none"
         id="text214"><tspan
           x="0 4.7199998 14.864 19.312 25.087999 35.264 45.439999 50.528 60.703999 70.879997 76.272003 86.447998"
           y="0"
           sodipodi:role="line"
           id="tspan212">Jul-18 12:00</tspan></text>
<path
         d="m 748.12235,25.92 v -3.5"
         style="fill:#000000;fill-opacity:1;fill-rule:nonzero;stroke:#000000;stroke-width:0.80000001;stroke-linecap:butt;stroke-linejoin:round;stroke-miterlimit:10;stroke-dasharray:none;stroke-opacity:1"
         id="path216"
         inkscape:connector-curvature="0" /><text
         transform="matrix(1,0,0,-1,699.77079,6.76375)"
         style="font-variant:normal;font-weight:normal;font-size:16px;font-family:'DejaVu Sans';-inkscape-font-specification:DejaVuSans;writing-mode:lr-tb;fill:#000000;fill-opacity:1;fill-rule:nonzero;stroke:none"
         id="text220"><tspan
           x="0 4.7199998 14.864 19.312 25.087999 35.264 45.439999 50.528 60.703999 70.879997 76.272003 86.447998"
           y="0"
           sodipodi:role="line"
           id="tspan218">Jul-21 12:00</tspan></text>
<path
         d="m 909.55059,25.92 v -3.5"
         style="fill:#000000;fill-opacity:1;fill-rule:nonzero;stroke:#000000;stroke-width:0.80000001;stroke-linecap:butt;stroke-linejoin:round;stroke-miterlimit:10;stroke-dasharray:none;stroke-opacity:1"
         id="path222"
         inkscape:connector-curvature="0" /><text
         transform="matrix(1,0,0,-1,861.19903,6.76375)"
         style="font-variant:normal;font-weight:normal;font-size:16px;font-family:'DejaVu Sans';-inkscape-font-specification:DejaVuSans;writing-mode:lr-tb;fill:#000000;fill-opacity:1;fill-rule:nonzero;stroke:none"
         id="text226"><tspan
           x="0 4.7199998 14.864 19.312 25.087999 35.264 45.439999 50.528 60.703999 70.879997 76.272003 86.447998"
           y="0"
           sodipodi:role="line"
           id="tspan224">Jul-24 12:00</tspan></text>
<text
         transform="matrix(1,0,0,-1,446.33937,-12.720625)"
         style="font-variant:normal;font-weight:normal;font-size:16px;font-family:'DejaVu Sans';-inkscape-font-specification:DejaVuSans;writing-mode:lr-tb;fill:#000000;fill-opacity:1;fill-rule:nonzero;stroke:none"
         id="text230"><tspan
           x="0 8.8000002 18.639999 24.912001 32.911999 39.183998 43.632 59.216 69.056 77.391998 83.664001 93.472 109.056"
           y="0"
           sodipodi:role="line"
           id="tspan228">cet_timestamp</tspan></text>
<path
         d="M 48.6,46.538969 H 45.1"
         style="fill:#000000;fill-opacity:1;fill-rule:nonzero;stroke:#000000;stroke-width:0.80000001;stroke-linecap:butt;stroke-linejoin:round;stroke-miterlimit:10;stroke-dasharray:none;stroke-opacity:1"
         id="path232"
         inkscape:connector-curvature="0" /><text
         transform="matrix(1,0,0,-1,31.4125,40.460844)"
         style="font-variant:normal;font-weight:normal;font-size:16px;font-family:'DejaVu Sans';-inkscape-font-specification:DejaVuSans;writing-mode:lr-tb;fill:#000000;fill-opacity:1;fill-rule:nonzero;stroke:none"
         id="text236"><tspan
           x="0"
           y="0"
           id="tspan234">0</tspan></text>
<path
         d="M 48.6,103.28582 H 45.1"
         style="fill:#000000;fill-opacity:1;fill-rule:nonzero;stroke:#000000;stroke-width:0.80000001;stroke-linecap:butt;stroke-linejoin:round;stroke-miterlimit:10;stroke-dasharray:none;stroke-opacity:1"
         id="path238"
         inkscape:connector-curvature="0" /><text
         transform="matrix(1,0,0,-1,21.225,97.207697)"
         style="font-variant:normal;font-weight:normal;font-size:16px;font-family:'DejaVu Sans';-inkscape-font-specification:DejaVuSans;writing-mode:lr-tb;fill:#000000;fill-opacity:1;fill-rule:nonzero;stroke:none"
         id="text242"><tspan
           x="0 10.176"
           y="0"
           sodipodi:role="line"
           id="tspan240">50</tspan></text>
<text
         transform="matrix(0,1,1,0,13.896875,39.002849)"
         style="font-variant:normal;font-weight:normal;font-size:16px;font-family:'DejaVu Sans';-inkscape-font-specification:DejaVuSans;writing-mode:lr-tb;fill:#000000;fill-opacity:1;fill-rule:nonzero;stroke:none"
         id="text246"><tspan
           x="0 6.2399998 16.351999 28.063999 39.183998 44.576 58.383999 74.208 84.351997"
           y="0"
           sodipodi:role="line"
           id="tspan244">[EUR/MWh]</tspan></text>
</g><g
       id="g248"><g
         id="g250"
         clip-path="url(#clipPath254)"><path
           d="m 48.6,91.916951 2.242059,-1.287856 2.242059,-3.459379 2.242058,-1.669757 2.242059,-0.733137 2.242059,-0.90302 2.242059,0.90302 2.242059,0.733137 2.242059,-0.733137 2.242058,-0.90302 2.242059,-1.77293 2.242059,-0.697096 2.242059,-1.936378 H 86.715 l 2.242059,4.406404 2.242059,6.765293 2.242058,0.211311 h 6.726174 l 2.24206,-2.841492 2.24206,-0.829198 2.24206,-3.305914 h 6.72618 l 4.48411,3.305914 h 4.48412 l 2.24206,-3.305914 2.24206,-0.861343 2.24206,-1.608683 2.24206,-1.936378 h 6.72617 l 2.24206,2.633474 2.24206,5.078844 2.24206,3.67069 h 2.24206 l 2.24206,0.46125 2.24206,-0.672561 4.48411,-6.765293 4.48412,-1.77293 h 4.48412 l 4.48412,1.77293 4.48411,3.305914 h 2.24206 l 2.24206,-2.402894 2.24206,-1.764363 2.24206,-1.608683 2.24206,-1.936378 h 4.48412 l 2.24205,1.936378 2.24206,1.608683 4.48412,8.299197 h 4.48412 l 2.24206,-4.13194 2.24206,-2.402894 2.24206,-1.764363 2.24205,-1.608683 2.24206,-3.182733 h 2.24206 l 2.24206,0.72146 2.24206,3.158369 4.48412,1.77293 4.48411,3.305914 h 2.24206 l 2.24206,-3.305914 6.72618,-2.470026 h 6.72617 l 2.24206,0.697096 2.24206,1.77293 h 4.48412 l 4.48412,-1.77293 2.24206,-3.158369 4.48411,-1.343837 h 2.24206 l 2.24206,0.622377 h 2.24206 l 2.24206,1.246355 2.24206,2.633474 4.48412,1.77293 h 2.24205 l 4.48412,-1.77293 2.24206,-2.633474 2.24206,-1.246355 h 11.21029 l 2.24206,1.246355 2.24206,1.102531 h 4.48412 l 2.24206,-2.348886 h 4.48412 l 2.24205,-0.622377 h 2.24206 l 2.24206,0.622377 h 2.24206 l 2.24206,3.182733 2.24206,0.697096 h 2.24206 l 2.24206,0.911587 2.24206,-0.911587 h 2.24205 l 2.24206,-2.633474 2.24206,-1.246355 H 353.52 l 2.24206,3.182733 2.24206,4.106183 2.24206,5.801697 2.24205,0.615295 2.24206,-1.287856 2.24206,-3.459379 2.24206,-2.402894 2.24206,-1.764363 2.24206,-0.911587 2.24206,-1.530943 2.24206,-1.102531 2.24206,1.102531 2.24205,1.530943 4.48412,3.409087 2.24206,1.669757 2.24206,3.459379 h 2.24206 l 2.24206,-5.862273 2.24206,-1.764363 2.24205,-0.911587 h 4.48412 l 4.48412,1.77293 2.24206,8.053149 2.24206,1.036755 h 4.48412 l 2.24205,-1.036755 2.24206,-0.615295 2.24206,-4.13194 2.24206,-3.305914 h 8.96824 l 4.48411,6.765293 2.24206,1.287856 h 4.48412 l 2.24206,-4.747235 2.24206,-3.305914 h 2.24206 l 2.24206,-0.861343 2.24205,0.861343 h 2.24206 l 2.24206,1.636157 2.24206,6.416992 2.24206,1.698641 h 6.72618 l 2.24205,-0.661886 2.24206,-1.65205 2.24206,-4.13194 2.24206,-1.669757 h 2.24206 l 2.24206,-0.733137 2.24206,2.402894 2.24206,3.459379 2.24206,1.287856 2.24205,1.036755 2.24206,0.661886 2.24206,-0.661886 2.24206,-2.324611 2.24206,-5.129136 2.24206,-1.636157 h 6.72617 l 2.24206,3.305914 2.24206,5.78399 2.24206,0.661886 h 6.72618 l 2.24206,-0.661886 2.24206,-1.65205 2.24205,-4.13194 2.24206,-3.305914 h 4.48412 l 2.24206,1.636157 2.24206,2.498955 2.24206,3.918037 h 2.24206 l 2.24205,1.698641 2.24206,-0.661886 2.24206,-2.324611 2.24206,-5.129136 2.24206,-1.636157 h 6.72618 l 2.24206,3.305914 2.24205,5.78399 2.24206,0.661886 h 4.48412 l 2.24206,-1.698641 2.24206,-1.287856 2.24206,-6.765293 2.24206,-1.77293 2.24206,-0.697096 2.24205,-1.936378 h 2.24206 l 2.24206,2.633474 4.48412,3.409087 2.24206,5.129136 2.24206,0.211311 2.24206,-0.211311 2.24205,-5.129136 2.24206,-1.636157 4.48412,-1.77293 h 6.72618 l 4.48412,1.77293 h 2.24205 l 2.24206,-0.861343 2.24206,-4.069956 2.24206,-13.477916 h 2.24206 l 2.24206,-4.613566 2.24206,-3.923572 h 4.48411 l 2.24206,3.923572 2.24206,4.613566 h 35.87294 l 2.24206,-4.613566 2.24206,-3.272883 2.24206,-1.746043 2.24206,-0.261832 h 2.24206 l 2.24206,0.644379 4.48411,9.249945 h 2.24206 l 2.24206,12.756456 2.24206,1.246355 2.24206,1.102531 2.24206,-2.348886 2.24206,-0.622377 2.24206,-12.134079 h 4.48411 l 2.24206,12.134079 2.24206,1.343837 2.24206,4.931299 2.24206,3.305914 h 2.24206 l 2.24206,-3.305914 2.24205,-0.861343 2.24206,-1.608683 2.24206,-3.80511 2.24206,-1.968386 h 4.48412 l 2.24206,1.968386 2.24206,0.622377 2.24206,2.348886 2.24205,3.303873 2.24206,0.90302 2.24206,2.402894 2.24206,-1.669757 2.24206,-2.4975 2.24206,-0.911587 2.24206,-0.697096 2.24206,-1.936378 2.24206,1.102531 2.24205,1.530943 2.24206,0.911587 2.24206,4.996455 2.24206,2.630181 2.24206,-1.127101 2.24206,-1.50308 2.24206,-0.829198 2.24206,-3.305914 2.24205,-4.931299 2.24206,-1.343837 2.24206,-0.792758 H 810.9 l 2.24206,0.792758 2.24206,0.622377 2.24206,3.879829 4.48411,3.409087 4.48412,-3.409087 2.24206,-0.697096 2.24206,-0.833847 h 2.24206 l 2.24206,0.833847 2.24206,0.697096 2.24205,0.911587 2.24206,4.996455 h 4.48412 l 2.24206,-0.829198 2.24206,-3.305914 2.24206,-2.470026 2.24206,-3.80511 h 13.45235 l 2.24206,4.502206 4.48412,3.409087 2.24205,-0.733137 2.24206,-1.764363 2.24206,-0.911587 h 2.24206 l 2.24206,-0.697096 2.24206,0.697096 h 2.24206 l 2.24206,1.77293 2.24206,4.135112 h 6.72617 l 2.24206,-3.232092 2.24206,-2.67595 2.24206,-3.879829 2.24206,-0.622377 h 8.96823 l 2.24206,0.622377 2.24206,3.879829 2.24206,1.77293 2.24206,0.90302 6.72617,-2.67595 h 2.24206 l 2.24206,-0.697096 h 2.24206 l 2.24206,0.697096 2.24206,0.911587 2.24206,4.167257 2.24206,0.829198 h 8.96823 L 963.36,85.499959 v 0"
           style="fill:none;stroke:#1f77b4;stroke-width:1.5;stroke-linecap:square;stroke-linejoin:round;stroke-miterlimit:10;stroke-dasharray:none;stroke-opacity:1"
           id="path256"
           inkscape:connector-curvature="0" /></g></g><g
       id="g258"><g
         id="g260"
         clip-path="url(#clipPath264)"><path
           d="m 48.6,94.240373 2.242059,-1.747803 2.242059,-2.201778 2.242058,-1.770501 2.242059,-0.919299 2.242059,-1.339226 4.484118,-2.235826 2.242059,-2.496862 2.242058,-1.350575 2.242059,-0.556119 2.242059,-3.529654 2.242059,-0.930649 2.242059,-1.395972 2.242059,-2.213127 2.242058,-1.27113 2.242059,0.885251 2.242059,2.837343 2.242059,3.870135 2.242059,8.330438 2.242058,4.68729 2.242059,0.760408 2.242059,0.283734 2.242056,2.16773 2.24206,-3.711244 2.24206,1.248431 2.24206,-3.177824 2.24206,-2.088284 2.24206,-3.518305 2.24206,3.291317 2.24206,0.805805 2.24205,-0.476673 2.24206,-2.020188 2.24206,-1.44137 2.24206,-1.588912 2.24206,-4.880229 2.24206,-1.554864 2.24206,-3.654497 2.24205,-0.919299 2.24206,0.374529 2.24206,1.7932 2.24206,2.962186 2.24206,4.358158 2.24206,8.012656 2.24206,4.221966 4.48412,-0.567469 2.24205,-0.771757 2.24206,-5.016422 2.24206,-1.952091 2.24206,-1.112239 2.24206,-0.03405 2.24206,1.044142 2.24206,2.462814 2.24206,1.032792 2.24205,0.170241 2.24206,-2.496862 2.24206,-1.918043 2.24206,-1.168985 4.48412,-5.822227 2.24206,-1.078191 2.24206,-1.316527 2.24206,-0.680962 2.24205,0.397228 2.24206,2.576307 2.24206,4.800784 2.24206,7.547331 2.24206,0.828504 2.24206,-1.123587 2.24206,-0.612866 2.24206,0.374529 2.24206,-3.733943 2.24205,-0.930648 2.24206,-1.554864 4.48412,-1.203033 2.24206,3.018932 2.24206,1.293828 2.24206,1.668358 2.24206,1.100889 4.48411,0.01135 2.24206,-6.923116 2.24206,0.283734 2.24206,-4.119821 2.24206,-1.588912 2.24206,-0.03405 2.24206,-0.215638 2.24205,-0.340481 2.24206,0.590167 2.24206,5.322855 2.24206,3.563702 2.24206,1.952092 2.24206,-0.998745 2.24206,-0.35183 2.24206,-5.220711 2.24206,-4.31276 2.24205,-2.303923 2.24206,-0.0227 2.24206,2.349319 2.24206,5.039121 2.24206,3.79069 2.24206,3.518304 6.72617,0.01135 2.24206,-6.900417 2.24206,-2.462814 2.24206,-2.837343 2.24206,-1.361924 2.24206,-1.509466 2.24206,-1.872646 4.48412,-3.348065 2.24205,2.156381 2.24206,3.518305 2.24206,2.87139 2.24206,0.499373 2.24206,1.112238 2.24206,-2.303922 2.24206,-3.336715 2.24206,-8.012656 2.24205,1.815899 2.24206,7.252248 2.24206,2.326621 4.48412,6.934466 2.24206,1.691056 2.24206,-2.235826 2.24206,0.374529 2.24206,-4.539748 2.24205,-2.031538 4.48412,-4.834831 2.24206,-1.384624 2.24206,-1.554863 2.24206,5.844925 2.24206,11.894141 2.24206,8.46663 2.24205,0.567469 2.24206,-1.339226 2.24206,-3.143776 2.24206,-2.33797 2.24206,-3.745292 2.24206,-1.838598 2.24206,-1.237082 2.24206,-0.272385 2.24206,0.272385 2.24205,4.573797 2.24206,4.006328 2.24206,1.554863 2.24206,-0.8966 2.24206,-2.440115 2.24206,-0.0227 2.24206,-6.707478 2.24206,-2.031538 2.24205,-2.394717 2.24206,-0.998745 2.24206,-0.17024 2.24206,0.18159 2.24206,2.065585 2.24206,2.916789 2.24206,6.514538 2.24206,0.839854 2.24206,-1.339226 2.24205,0.35183 2.24206,1.940743 6.72618,-3.336715 2.24206,-0.09079 2.24206,-0.272385 2.24206,1.906694 4.48411,4.925627 2.24206,0.124843 2.24206,-0.941998 2.24206,-1.06684 2.24206,-5.107217 2.24206,-4.812133 2.24206,-1.134937 2.24206,-1.770502 2.24205,-0.261036 2.24206,0.317783 2.24206,1.747803 2.24206,6.140009 2.24206,7.445187 2.24206,1.702406 2.24206,-3.279968 2.24206,-0.397228 2.24205,0.453975 2.24206,-2.042887 4.48412,0.624215 2.24206,-1.725104 2.24206,-1.418671 2.24206,1.339225 2.24206,2.667102 2.24206,4.324111 2.24205,-0.249687 2.24206,-3.200522 2.24206,0.646914 2.24206,-6.083262 2.24206,-3.506956 2.24206,-3.177824 2.24206,-0.624215 2.24206,0.340481 2.24205,-0.113494 2.24206,1.566213 4.48412,14.198063 2.24206,1.07819 2.24206,-3.688545 2.24206,-1.384623 2.24206,2.15638 2.24206,-2.905439 2.24205,-1.577562 2.24206,0.419926 2.24206,-1.929393 2.24206,-0.238336 2.24206,3.926882 2.24206,4.437604 2.24206,0.317782 2.24206,-2.258525 2.24205,-1.940742 2.24206,-0.05675 2.24206,-6.514539 2.24206,-2.33797 2.24206,-1.872646 2.24206,-1.180335 4.48412,-0.805805 2.24206,1.98614 4.48411,13.971075 2.24206,0.783107 2.24206,-1.952092 2.24206,-1.07819 2.24206,-1.895345 2.24206,-1.25978 2.24206,-3.098379 2.24206,-0.374529 2.24205,-0.238337 2.24206,0.295084 2.24206,4.483001 2.24206,3.665847 2.24206,2.122332 2.24206,-2.610355 2.24206,-4.312761 2.24206,2.916789 2.24205,-1.793201 2.24206,-7.445187 2.24206,-3.177824 2.24206,-1.725104 2.24206,-0.295084 2.24206,-0.147542 2.24206,-0.465324 2.24206,1.350575 2.24206,2.326621 2.24205,0.465325 4.48412,-0.646915 2.24206,-2.281223 2.24206,-1.021443 2.24206,-3.563703 2.24206,0.760408 2.24206,2.33797 2.24205,0.0227 4.48412,7.831066 2.24206,2.383368 2.24206,-0.113494 2.24206,-2.916788 2.24206,0.238336 2.24206,-3.438859 2.24205,-6.208105 2.24206,-2.916789 2.24206,-3.359413 2.24206,1.452719 2.24206,-2.076935 2.24206,-3.041631 2.24206,0.01135 2.24206,5.198012 2.24206,-3.518305 2.24206,0.567469 2.24205,0.885251 2.24206,4.32411 2.24206,0.919299 2.24206,-4.119822 2.24206,1.997489 2.24206,-2.133681 2.24206,2.576307 2.24205,5.504445 2.24206,3.756641 2.24206,0.624216 2.24206,-0.19294 2.24206,-1.736453 2.24206,1.498117 2.24206,-4.006328 2.24206,-1.407322 2.24206,-1.032793 2.24206,-1.191684 2.24205,0.204289 2.24206,-0.340481 2.24206,2.076935 2.24206,10.713805 2.24206,7.592729 2.24206,2.610355 2.24206,1.282479 4.48411,0.238337 2.24206,-0.885251 2.24206,-1.963441 2.24206,-3.79069 2.24206,-2.814644 2.24206,-1.180334 2.24206,1.929393 2.24206,-0.71501 2.24205,-0.07945 2.24206,-3.461558 2.24206,-2.88274 2.24206,-1.395973 2.24206,-2.644403 2.24206,1.395973 2.24206,-2.076935 2.24206,-0.431276 2.24206,-0.794456 4.48411,2.269874 2.24206,4.097123 2.24206,8.194245 2.24206,5.41365 2.24206,-0.839854 2.24206,1.100889 2.24206,0.05675 2.24205,-5.595239 2.24206,-3.416161 2.24206,-1.566213 2.24206,-1.940743 4.48412,0.488023 2.24206,4.085774 2.24206,2.235826 2.24205,-3.336715 2.24206,-2.190429 2.24206,3.268619 2.24206,-5.981118 2.24206,-3.404811 2.24206,-1.588912 4.48412,-1.08954 2.24206,0.703661 2.24205,1.543515 2.24206,4.085773 2.24206,8.818461 2.24206,-0.680962 2.24206,-1.781852 2.24206,-0.635564 2.24206,0.828504 2.24206,-3.030282 2.24206,-0.862552 2.24205,-1.645659 2.24206,-1.112238 2.24206,-0.0681 2.24206,1.827249 2.24206,4.119822 2.24206,3.506955 4.48412,-7.03661 2.24205,1.554864 2.24206,-4.483001 2.24206,-2.337971 2.24206,-1.815899 2.24206,-0.964696 2.24206,-0.839854 2.24206,0.646914 2.24206,1.929393 2.24206,2.610356 2.24205,7.797017 2.24206,0.465324 2.24206,-1.645658 2.24206,-0.249687 2.24206,1.339226 2.24206,0.635565 2.24206,-0.476674 2.24206,-1.759152 2.24206,-0.01135 2.24205,0.465324 2.24206,3.257269 2.24206,1.883996 2.24206,1.62296 2.24206,-1.464069 2.24206,-0.136193 2.24206,0.442626 2.24206,-5.969769 2.24205,-6.991212 2.24206,-2.292573 2.24206,-0.919299 4.48412,-0.05675 2.24206,2.213127 2.24206,5.300156 2.24206,8.330438 2.24205,1.611611 2.24206,-0.567469 2.24206,-1.07819 2.24206,-0.01135 2.24206,-3.393462 v 0"
           style="fill:none;stroke:#ff7f0e;stroke-width:1.5;stroke-linecap:square;stroke-linejoin:round;stroke-miterlimit:10;stroke-dasharray:none;stroke-opacity:1"
           id="path266"
           inkscape:connector-curvature="0" /></g></g><g
       id="g268"><path
         d="M 48.6,25.92 V 142.7107"
         style="fill:none;stroke:#000000;stroke-width:0.80000001;stroke-linecap:square;stroke-linejoin:miter;stroke-miterlimit:10;stroke-dasharray:none;stroke-opacity:1"
         id="path270"
         inkscape:connector-curvature="0" /><path
         d="M 963.36,25.92 V 142.7107"
         style="fill:none;stroke:#000000;stroke-width:0.80000001;stroke-linecap:square;stroke-linejoin:miter;stroke-miterlimit:10;stroke-dasharray:none;stroke-opacity:1"
         id="path272"
         inkscape:connector-curvature="0" /><path
         d="M 48.6,25.92 H 963.36"
         style="fill:none;stroke:#000000;stroke-width:0.80000001;stroke-linecap:square;stroke-linejoin:miter;stroke-miterlimit:10;stroke-dasharray:none;stroke-opacity:1"
         id="path274"
         inkscape:connector-curvature="0" /><path
         d="M 48.6,142.7107 H 963.36"
         style="fill:none;stroke:#000000;stroke-width:0.80000001;stroke-linecap:square;stroke-linejoin:miter;stroke-miterlimit:10;stroke-dasharray:none;stroke-opacity:1"
         id="path276"
         inkscape:connector-curvature="0" /><path
         d="m 969.93697,82.941948 h 105.71563 c 2.1333,0 3.2,1.066666 3.2,3.2 V 131.5107 c 0,2.13333 -1.0667,3.2 -3.2,3.2 H 969.93697 c -2.13333,0 -3.19999,-1.06667 -3.19999,-3.2 V 86.141948 c 0,-2.133334 1.06666,-3.2 3.19999,-3.2 z"
         style="fill:#ffffff;fill-opacity:0.8;fill-rule:nonzero;stroke:#cccccc;stroke-width:1;stroke-linecap:butt;stroke-linejoin:miter;stroke-miterlimit:10;stroke-dasharray:none;stroke-opacity:0.8"
         id="path278"
         inkscape:connector-curvature="0" /><path
         d="M 973.13697,121.75445 H 1005.137"
         style="fill:none;stroke:#1f77b4;stroke-width:1.5;stroke-linecap:square;stroke-linejoin:round;stroke-miterlimit:10;stroke-dasharray:none;stroke-opacity:1"
         id="path280"
         inkscape:connector-curvature="0" /><text
         transform="matrix(1,0,0,-1,1017.937,116.15445)"
         style="font-variant:normal;font-weight:normal;font-size:16px;font-family:'DejaVu Sans';-inkscape-font-specification:DejaVuSans;writing-mode:lr-tb;fill:#000000;fill-opacity:1;fill-rule:nonzero;stroke:none"
         id="text284"><tspan
           x="0 10.16 20 30.176001"
           y="0"
           sodipodi:role="line"
           id="tspan282">de02</tspan></text>
<path
         d="M 973.13697,98.270073 H 1005.137"
         style="fill:none;stroke:#ff7f0e;stroke-width:1.5;stroke-linecap:square;stroke-linejoin:round;stroke-miterlimit:10;stroke-dasharray:none;stroke-opacity:1"
         id="path286"
         inkscape:connector-curvature="0" /><text
         transform="matrix(1,0,0,-1,1017.937,92.670073)"
         style="font-variant:normal;font-weight:normal;font-size:16px;font-family:'DejaVu Sans';-inkscape-font-specification:DejaVuSans;writing-mode:lr-tb;fill:#000000;fill-opacity:1;fill-rule:nonzero;stroke:none"
         id="text290"><tspan
           x="0 10.112 20.256001 26.528 34.863998 44.655998"
           y="0"
           sodipodi:role="line"
           id="tspan288">Entsoe</tspan></text>
</g></g></svg>